<?xml version="1.0" encoding="UTF-8"?>
<!DOCTYPE svg PUBLIC "-//W3C//DTD SVG 1.1//EN" "http://www.w3.org/Graphics/SVG/1.1/DTD/svg11.dtd">
<svg xmlns="http://www.w3.org/2000/svg" version="1.1" width="1024px" height="1024px" style="shape-rendering:geometricPrecision; text-rendering:geometricPrecision; image-rendering:optimizeQuality; fill-rule:evenodd; clip-rule:evenodd" xmlns:xlink="http://www.w3.org/1999/xlink">
<g><path style="opacity:1" fill="#fdfefd" d="M -0.5,-0.5 C 340.833,-0.5 682.167,-0.5 1023.5,-0.5C 1023.5,340.833 1023.5,682.167 1023.5,1023.5C 682.167,1023.5 340.833,1023.5 -0.5,1023.5C -0.5,682.167 -0.5,340.833 -0.5,-0.5 Z"/></g>
<g><path style="opacity:1" fill="#29c8b3" d="M 372.5,339.5 C 372.196,338.85 371.863,338.183 371.5,337.5C 373.078,336.702 374.744,336.202 376.5,336C 373.518,335.502 370.518,335.335 367.5,335.5C 367.5,331.167 367.5,326.833 367.5,322.5C 372.833,322.5 378.167,322.5 383.5,322.5C 384.833,315.167 384.833,307.833 383.5,300.5C 380.833,300.5 378.167,300.5 375.5,300.5C 375.5,297.167 375.5,293.833 375.5,290.5C 370.167,290.167 364.833,289.833 359.5,289.5C 359.5,294.167 359.5,298.833 359.5,303.5C 340.833,303.5 322.167,303.5 303.5,303.5C 303.5,308.833 303.5,314.167 303.5,319.5C 298.167,319.5 292.833,319.5 287.5,319.5C 288.167,314.167 288.833,308.833 289.5,303.5C 286.387,303.935 285.721,302.935 287.5,300.5C 286.167,298.5 284.833,296.5 283.5,294.5C 285.192,292.795 286.525,290.795 287.5,288.5C 287.167,288.167 286.833,287.833 286.5,287.5C 281.429,293.906 275.429,299.239 268.5,303.5C 284.952,279.941 307.286,265.441 335.5,260C 350.115,258.538 364.448,259.872 378.5,264C 401.029,273.968 423.696,283.968 446.5,294C 461.594,309.735 464.427,327.568 455,347.5C 452.568,351.604 449.234,354.604 445,356.5C 420.933,350.387 396.766,344.72 372.5,339.5 Z"/></g>
<g><path style="opacity:1" fill="#27c7b5" d="M 372.5,339.5 C 368.649,337.831 364.649,337.331 360.5,338C 357.793,339.864 356.959,342.364 358,345.5C 359.406,347.744 361.239,349.41 363.5,350.5C 362.152,351.186 360.985,352.186 360,353.5C 359.389,351.25 358.056,349.583 356,348.5C 355.517,349.448 355.351,350.448 355.5,351.5C 358.205,351.38 358.872,352.38 357.5,354.5C 349.827,357.431 341.827,358.265 333.5,357C 325.119,352.708 325.785,350.874 335.5,351.5C 335.5,347.5 335.5,343.5 335.5,339.5C 338.5,339.5 341.5,339.5 344.5,339.5C 344.669,334.959 344.002,334.626 342.5,338.5C 341.335,337.509 340.168,336.509 339,335.5C 338.05,336.022 337.216,336.689 336.5,337.5C 331.062,335.612 325.395,334.946 319.5,335.5C 319.5,337.5 319.5,339.5 319.5,341.5C 314.167,341.5 308.833,341.5 303.5,341.5C 303.5,344.833 303.5,348.167 303.5,351.5C 302.5,351.5 301.5,351.5 300.5,351.5C 300.5,348.833 300.5,346.167 300.5,343.5C 298.833,343.5 297.167,343.5 295.5,343.5C 295.5,342.5 295.5,341.5 295.5,340.5C 297.167,340.5 298.833,340.5 300.5,340.5C 300.5,338.833 300.5,337.167 300.5,335.5C 296.167,335.5 291.833,335.5 287.5,335.5C 287.5,334.167 287.5,332.833 287.5,331.5C 286.5,331.5 285.5,331.5 284.5,331.5C 283.833,336.833 283.167,336.833 282.5,331.5C 278.833,331.5 275.167,331.5 271.5,331.5C 271.5,329.167 271.5,326.833 271.5,324.5C 268.813,324.336 266.146,324.503 263.5,325C 262.874,325.75 262.374,326.584 262,327.5C 259.959,327.643 257.792,327.309 255.5,326.5C 253.915,328.706 252.415,331.039 251,333.5C 249.961,332.756 249.461,331.756 249.5,330.5C 254.674,320.664 261.007,311.664 268.5,303.5C 275.429,299.239 281.429,293.906 286.5,287.5C 286.833,287.833 287.167,288.167 287.5,288.5C 286.525,290.795 285.192,292.795 283.5,294.5C 284.833,296.5 286.167,298.5 287.5,300.5C 285.721,302.935 286.387,303.935 289.5,303.5C 288.833,308.833 288.167,314.167 287.5,319.5C 292.833,319.5 298.167,319.5 303.5,319.5C 303.5,314.167 303.5,308.833 303.5,303.5C 322.167,303.5 340.833,303.5 359.5,303.5C 359.5,298.833 359.5,294.167 359.5,289.5C 364.833,289.833 370.167,290.167 375.5,290.5C 375.5,293.833 375.5,297.167 375.5,300.5C 378.167,300.5 380.833,300.5 383.5,300.5C 384.833,307.833 384.833,315.167 383.5,322.5C 378.167,322.5 372.833,322.5 367.5,322.5C 367.5,326.833 367.5,331.167 367.5,335.5C 370.518,335.335 373.518,335.502 376.5,336C 374.744,336.202 373.078,336.702 371.5,337.5C 371.863,338.183 372.196,338.85 372.5,339.5 Z"/></g>
<g><path style="opacity:1" fill="#2cc5b8" d="M 363.5,350.5 C 383.607,362.098 403.607,373.931 423.5,386C 427.486,388.753 427.153,391.086 422.5,393C 408.877,398.964 395.21,398.964 381.5,393C 363.572,384.705 345.572,376.372 327.5,368C 323.5,367.333 319.5,367.333 315.5,368C 311.156,371.869 307.156,376.036 303.5,380.5C 302.471,379.874 301.471,379.041 300.5,378C 302.301,377.683 302.634,377.016 301.5,376C 299.527,375.505 297.527,375.338 295.5,375.5C 295.966,377.201 295.966,378.701 295.5,380C 292.854,380.497 290.187,380.664 287.5,380.5C 287.5,379.167 287.5,377.833 287.5,376.5C 277.833,376.5 268.167,376.5 258.5,376.5C 258.5,378.833 258.5,381.167 258.5,383.5C 254.833,383.5 251.167,383.5 247.5,383.5C 247.5,386.167 247.5,388.833 247.5,391.5C 249.5,391.5 251.5,391.5 253.5,391.5C 253.5,394.167 253.5,396.833 253.5,399.5C 252.5,399.5 251.5,399.5 250.5,399.5C 250.5,402.167 250.5,404.833 250.5,407.5C 246.833,407.5 243.167,407.5 239.5,407.5C 238.731,399.488 238.397,391.488 238.5,383.5C 236.348,388.624 235.015,393.957 234.5,399.5C 233.5,399.5 232.5,399.5 231.5,399.5C 232.527,393.155 232.527,386.822 231.5,380.5C 230.065,385.756 228.899,391.089 228,396.5C 227.667,396.833 227.333,397.167 227,397.5C 226.52,395.867 225.687,394.534 224.5,393.5C 229.662,371.129 237.995,350.129 249.5,330.5C 249.461,331.756 249.961,332.756 251,333.5C 252.415,331.039 253.915,328.706 255.5,326.5C 257.792,327.309 259.959,327.643 262,327.5C 262.374,326.584 262.874,325.75 263.5,325C 266.146,324.503 268.813,324.336 271.5,324.5C 271.5,326.833 271.5,329.167 271.5,331.5C 275.167,331.5 278.833,331.5 282.5,331.5C 283.167,336.833 283.833,336.833 284.5,331.5C 285.5,331.5 286.5,331.5 287.5,331.5C 287.5,332.833 287.5,334.167 287.5,335.5C 291.833,335.5 296.167,335.5 300.5,335.5C 300.5,337.167 300.5,338.833 300.5,340.5C 298.833,340.5 297.167,340.5 295.5,340.5C 295.5,341.5 295.5,342.5 295.5,343.5C 297.167,343.5 298.833,343.5 300.5,343.5C 300.5,346.167 300.5,348.833 300.5,351.5C 301.5,351.5 302.5,351.5 303.5,351.5C 303.5,348.167 303.5,344.833 303.5,341.5C 308.833,341.5 314.167,341.5 319.5,341.5C 319.5,339.5 319.5,337.5 319.5,335.5C 325.395,334.946 331.062,335.612 336.5,337.5C 337.216,336.689 338.05,336.022 339,335.5C 340.168,336.509 341.335,337.509 342.5,338.5C 344.002,334.626 344.669,334.959 344.5,339.5C 341.5,339.5 338.5,339.5 335.5,339.5C 335.5,343.5 335.5,347.5 335.5,351.5C 325.785,350.874 325.119,352.708 333.5,357C 341.827,358.265 349.827,357.431 357.5,354.5C 358.872,352.38 358.205,351.38 355.5,351.5C 355.351,350.448 355.517,349.448 356,348.5C 358.056,349.583 359.389,351.25 360,353.5C 360.985,352.186 362.152,351.186 363.5,350.5 Z"/></g>
<g><path style="opacity:1" fill="#2bc2be" d="M 303.5,380.5 C 301.307,385.891 298.807,391.224 296,396.5C 291.781,408.829 290.447,421.496 292,434.5C 292.936,438.114 293.436,441.78 293.5,445.5C 293.66,447.199 293.494,448.866 293,450.5C 291.045,444.274 289.378,437.94 288,431.5C 287.356,439.015 288.19,446.348 290.5,453.5C 290.167,454.167 289.833,454.833 289.5,455.5C 287.712,451.348 286.712,447.014 286.5,442.5C 284.5,442.5 282.5,442.5 280.5,442.5C 280.167,449.167 279.833,449.167 279.5,442.5C 276.833,442.5 274.167,442.5 271.5,442.5C 271.5,444.167 271.5,445.833 271.5,447.5C 275.527,447.281 276.194,448.448 273.5,451C 271.249,450.793 268.915,450.627 266.5,450.5C 266.5,449.5 266.5,448.5 266.5,447.5C 262.833,447.5 259.167,447.5 255.5,447.5C 255.5,445.833 255.5,444.167 255.5,442.5C 250.167,442.5 244.833,442.5 239.5,442.5C 239.5,446.5 239.5,450.5 239.5,454.5C 235.833,454.5 232.167,454.5 228.5,454.5C 226.833,454.5 225.167,454.5 223.5,454.5C 224.01,451.612 223.344,449.279 221.5,447.5C 222.162,443.827 222.829,440.161 223.5,436.5C 223.113,428.903 222.113,421.403 220.5,414C 221.942,409.301 222.609,404.468 222.5,399.5C 223.167,397.5 223.833,395.5 224.5,393.5C 225.687,394.534 226.52,395.867 227,397.5C 227.333,397.167 227.667,396.833 228,396.5C 228.899,391.089 230.065,385.756 231.5,380.5C 232.527,386.822 232.527,393.155 231.5,399.5C 232.5,399.5 233.5,399.5 234.5,399.5C 235.015,393.957 236.348,388.624 238.5,383.5C 238.397,391.488 238.731,399.488 239.5,407.5C 243.167,407.5 246.833,407.5 250.5,407.5C 250.5,404.833 250.5,402.167 250.5,399.5C 251.5,399.5 252.5,399.5 253.5,399.5C 253.5,396.833 253.5,394.167 253.5,391.5C 251.5,391.5 249.5,391.5 247.5,391.5C 247.5,388.833 247.5,386.167 247.5,383.5C 251.167,383.5 254.833,383.5 258.5,383.5C 258.5,381.167 258.5,378.833 258.5,376.5C 268.167,376.5 277.833,376.5 287.5,376.5C 287.5,377.833 287.5,379.167 287.5,380.5C 290.187,380.664 292.854,380.497 295.5,380C 295.966,378.701 295.966,377.201 295.5,375.5C 297.527,375.338 299.527,375.505 301.5,376C 302.634,377.016 302.301,377.683 300.5,378C 301.471,379.041 302.471,379.874 303.5,380.5 Z"/></g>
<g><path style="opacity:1" fill="#36bec0" d="M 222.5,399.5 C 222.609,404.468 221.942,409.301 220.5,414C 222.113,421.403 223.113,428.903 223.5,436.5C 222.829,440.161 222.162,443.827 221.5,447.5C 221.335,453.362 221.669,459.196 222.5,465C 222.257,475.537 221.257,485.704 219.5,495.5C 219.497,484.792 218.831,474.125 217.5,463.5C 215.958,482.83 215.625,502.163 216.5,521.5C 215.012,515.734 214.178,509.734 214,503.5C 213.5,490.171 213.333,476.837 213.5,463.5C 213.895,441.651 216.895,420.318 222.5,399.5 Z"/></g>
<g><path style="opacity:1" fill="#2bbfc3" d="M 293.5,445.5 C 295.667,451.684 298.333,457.684 301.5,463.5C 300.5,463.5 299.5,463.5 298.5,463.5C 297.458,459.052 295.458,455.052 292.5,451.5C 292.167,452.167 291.833,452.833 291.5,453.5C 292.592,457.392 294.259,461.059 296.5,464.5C 294.839,467.523 295.505,469.857 298.5,471.5C 299.748,470.96 300.915,470.293 302,469.5C 303.016,470.634 303.683,470.301 304,468.5C 304.972,470.305 306.139,471.972 307.5,473.5C 307.333,473.833 307.167,474.167 307,474.5C 306,473.5 305,472.5 304,471.5C 303.431,474.014 303.931,476.348 305.5,478.5C 305.167,479.167 304.833,479.833 304.5,480.5C 301.325,475.986 296.991,473.653 291.5,473.5C 291.5,475.5 291.5,477.5 291.5,479.5C 284.833,479.5 278.167,479.5 271.5,479.5C 271.5,481.5 271.5,483.5 271.5,485.5C 266.167,485.5 260.833,485.5 255.5,485.5C 255.5,482.833 255.5,480.167 255.5,477.5C 260.833,477.5 266.167,477.5 271.5,477.5C 271.5,476.167 271.5,474.833 271.5,473.5C 268.753,473.813 266.086,473.48 263.5,472.5C 264.325,471.614 265.325,471.281 266.5,471.5C 266.5,468.833 266.5,466.167 266.5,463.5C 264.5,463.5 262.5,463.5 260.5,463.5C 260.5,459.167 260.5,454.833 260.5,450.5C 258.833,450.5 257.167,450.5 255.5,450.5C 255.5,453.167 255.5,455.833 255.5,458.5C 250.167,458.5 244.833,458.5 239.5,458.5C 239.5,461.5 239.5,464.5 239.5,467.5C 242.167,467.5 244.833,467.5 247.5,467.5C 247.343,466.127 247.51,464.793 248,463.5C 248.497,466.146 248.664,468.813 248.5,471.5C 249.833,471.5 251.167,471.5 252.5,471.5C 252.5,474.167 252.5,476.833 252.5,479.5C 246.5,479.5 240.5,479.5 234.5,479.5C 234.5,476.833 234.5,474.167 234.5,471.5C 233.167,471.5 231.833,471.5 230.5,471.5C 229.69,465.854 229.024,460.187 228.5,454.5C 232.167,454.5 235.833,454.5 239.5,454.5C 239.5,450.5 239.5,446.5 239.5,442.5C 244.833,442.5 250.167,442.5 255.5,442.5C 255.5,444.167 255.5,445.833 255.5,447.5C 259.167,447.5 262.833,447.5 266.5,447.5C 266.5,448.5 266.5,449.5 266.5,450.5C 268.915,450.627 271.249,450.793 273.5,451C 276.194,448.448 275.527,447.281 271.5,447.5C 271.5,445.833 271.5,444.167 271.5,442.5C 274.167,442.5 276.833,442.5 279.5,442.5C 279.833,449.167 280.167,449.167 280.5,442.5C 282.5,442.5 284.5,442.5 286.5,442.5C 286.712,447.014 287.712,451.348 289.5,455.5C 289.833,454.833 290.167,454.167 290.5,453.5C 288.19,446.348 287.356,439.015 288,431.5C 289.378,437.94 291.045,444.274 293,450.5C 293.494,448.866 293.66,447.199 293.5,445.5 Z"/></g>
<g><path style="opacity:1" fill="#2dbcc5" d="M 221.5,447.5 C 223.344,449.279 224.01,451.612 223.5,454.5C 225.167,454.5 226.833,454.5 228.5,454.5C 229.024,460.187 229.69,465.854 230.5,471.5C 231.833,471.5 233.167,471.5 234.5,471.5C 234.5,474.167 234.5,476.833 234.5,479.5C 240.5,479.5 246.5,479.5 252.5,479.5C 252.5,476.833 252.5,474.167 252.5,471.5C 251.167,471.5 249.833,471.5 248.5,471.5C 248.664,468.813 248.497,466.146 248,463.5C 247.51,464.793 247.343,466.127 247.5,467.5C 244.833,467.5 242.167,467.5 239.5,467.5C 239.5,464.5 239.5,461.5 239.5,458.5C 244.833,458.5 250.167,458.5 255.5,458.5C 255.5,455.833 255.5,453.167 255.5,450.5C 257.167,450.5 258.833,450.5 260.5,450.5C 260.5,454.833 260.5,459.167 260.5,463.5C 262.5,463.5 264.5,463.5 266.5,463.5C 266.5,466.167 266.5,468.833 266.5,471.5C 265.325,471.281 264.325,471.614 263.5,472.5C 266.086,473.48 268.753,473.813 271.5,473.5C 271.5,474.833 271.5,476.167 271.5,477.5C 266.167,477.5 260.833,477.5 255.5,477.5C 255.5,480.167 255.5,482.833 255.5,485.5C 260.833,485.5 266.167,485.5 271.5,485.5C 271.5,483.5 271.5,481.5 271.5,479.5C 278.167,479.5 284.833,479.5 291.5,479.5C 291.5,477.5 291.5,475.5 291.5,473.5C 296.991,473.653 301.325,475.986 304.5,480.5C 304.833,479.833 305.167,479.167 305.5,478.5C 303.931,476.348 303.431,474.014 304,471.5C 305,472.5 306,473.5 307,474.5C 307.167,474.167 307.333,473.833 307.5,473.5C 306.139,471.972 304.972,470.305 304,468.5C 303.683,470.301 303.016,470.634 302,469.5C 300.915,470.293 299.748,470.96 298.5,471.5C 295.505,469.857 294.839,467.523 296.5,464.5C 294.259,461.059 292.592,457.392 291.5,453.5C 291.833,452.833 292.167,452.167 292.5,451.5C 295.458,455.052 297.458,459.052 298.5,463.5C 299.5,463.5 300.5,463.5 301.5,463.5C 313.59,481.558 330.257,493.225 351.5,498.5C 360.788,501.538 370.455,502.871 380.5,502.5C 380.5,502.833 380.5,503.167 380.5,503.5C 380.03,504.693 379.03,505.36 377.5,505.5C 374.638,504.403 371.805,504.403 369,505.5C 359.515,501.675 349.682,500.675 339.5,502.5C 340.263,503.719 341.263,504.719 342.5,505.5C 340.257,506.474 337.924,506.808 335.5,506.5C 335.5,505.167 335.5,503.833 335.5,502.5C 330.167,502.5 324.833,502.5 319.5,502.5C 319.5,503.833 319.5,505.167 319.5,506.5C 314.167,506.5 308.833,506.5 303.5,506.5C 303.5,508.167 303.5,509.833 303.5,511.5C 298.167,511.5 292.833,511.5 287.5,511.5C 287.5,509.833 287.5,508.167 287.5,506.5C 276.76,506.284 266.094,506.951 255.5,508.5C 255.5,509.5 255.5,510.5 255.5,511.5C 244.833,511.5 234.167,511.5 223.5,511.5C 223.667,500.828 223.5,490.161 223,479.5C 222.5,495.497 222.333,511.497 222.5,527.5C 221.5,527.5 220.5,527.5 219.5,527.5C 219.135,519.244 219.135,511.077 219.5,503C 217.543,500.591 217.543,498.091 219.5,495.5C 221.257,485.704 222.257,475.537 222.5,465C 221.669,459.196 221.335,453.362 221.5,447.5 Z"/></g>
<g><path style="opacity:1" fill="#e7fefe" d="M 491.5,453.5 C 460.832,453.333 430.165,453.5 399.5,454C 397.308,454.926 395.308,456.093 393.5,457.5C 393.641,454.52 395.141,452.52 398,451.5C 429.306,452.156 460.473,452.823 491.5,453.5 Z"/></g>
<g><path style="opacity:1" fill="#e8fefe" d="M 695.5,467.5 C 697.191,464.355 697.691,461.021 697,457.5C 695.961,456.29 694.794,455.29 693.5,454.5C 662.209,453.348 630.875,453.182 599.5,454C 597.34,455.332 595.34,456.832 593.5,458.5C 593.19,457.262 592.69,457.262 592,458.5C 591.517,457.552 591.351,456.552 591.5,455.5C 596.694,455.058 596.694,454.058 591.5,452.5C 592.5,452.167 593.5,451.833 594.5,451.5C 628.484,452.313 662.484,452.813 696.5,453C 697,453.5 697.5,454 698,454.5C 698.226,458.887 698.726,463.221 699.5,467.5C 698.315,467.124 696.982,467.124 695.5,467.5 Z"/></g>
<g><path style="opacity:1" fill="#34b0e1" d="M 693.5,454.5 C 695.182,457.598 695.682,460.931 695,464.5C 690.943,467.949 688.443,472.282 687.5,477.5C 679.328,491.183 670.662,504.516 661.5,517.5C 661.328,515.508 661.995,513.842 663.5,512.5C 661.366,512.098 659.366,512.098 657.5,512.5C 657.931,511.707 658.265,510.873 658.5,510C 657.051,507.876 656.051,505.543 655.5,503C 655.833,501.833 656.167,500.667 656.5,499.5C 658.425,501.977 660.091,504.643 661.5,507.5C 662.325,508.386 663.325,508.719 664.5,508.5C 665.949,504.528 668.449,501.194 672,498.5C 672.483,497.552 672.649,496.552 672.5,495.5C 670.43,495.449 668.597,496.115 667,497.5C 666.5,497.167 666,496.833 665.5,496.5C 666.407,493.579 666.74,490.579 666.5,487.5C 657.5,487.5 648.5,487.5 639.5,487.5C 639.5,490.167 639.5,492.833 639.5,495.5C 636.833,495.5 634.167,495.5 631.5,495.5C 631.5,498.167 631.5,500.833 631.5,503.5C 629.167,503.5 626.833,503.5 624.5,503.5C 624.425,506.206 624.092,508.873 623.5,511.5C 619.407,511.522 615.407,512.189 611.5,513.5C 604.934,511.846 598.267,511.179 591.5,511.5C 591.5,506.167 591.5,500.833 591.5,495.5C 590.022,495.762 588.689,495.429 587.5,494.5C 588.309,492.929 588.643,491.262 588.5,489.5C 585.1,489.032 582.767,490.365 581.5,493.5C 582.587,495.105 581.921,495.771 579.5,495.5C 578.5,495.333 577.5,495.167 576.5,495C 581.573,492.849 581.407,490.682 576,488.5C 575.255,490.203 574.421,491.87 573.5,493.5C 575.164,495.981 575.664,498.647 575,501.5C 573.743,499.254 571.91,497.921 569.5,497.5C 569.167,499.5 568.833,501.5 568.5,503.5C 567.041,503.433 565.708,503.766 564.5,504.5C 574.683,489.462 584.35,474.128 593.5,458.5C 595.34,456.832 597.34,455.332 599.5,454C 630.875,453.182 662.209,453.348 693.5,454.5 Z"/></g>
<g><path style="opacity:1" fill="#35b0e1" d="M 491.5,453.5 C 493.437,454.931 495.27,456.598 497,458.5C 508.185,476.214 519.351,493.88 530.5,511.5C 529.504,511.414 528.671,511.748 528,512.5C 527.51,511.207 527.343,509.873 527.5,508.5C 526.5,508.5 525.5,508.5 524.5,508.5C 524.949,506.023 524.283,504.023 522.5,502.5C 520.443,504.269 518.61,506.269 517,508.5C 516.517,509.448 516.351,510.448 516.5,511.5C 514.447,511.402 512.78,512.069 511.5,513.5C 508.833,513.5 506.167,513.5 503.5,513.5C 503.5,514.5 503.5,515.5 503.5,516.5C 500.833,516.5 498.167,516.5 495.5,516.5C 495.5,514.833 495.5,513.167 495.5,511.5C 490.553,512.372 486.387,511.039 483,507.5C 482.505,505.527 482.338,503.527 482.5,501.5C 479.014,502.953 475.347,503.619 471.5,503.5C 471.762,502.022 471.429,500.689 470.5,499.5C 468.697,498.863 467.364,497.697 466.5,496C 454.505,495.5 442.505,495.333 430.5,495.5C 430.657,496.873 430.49,498.207 430,499.5C 427.579,497.887 425.079,496.553 422.5,495.5C 422.5,496.5 422.5,497.5 422.5,498.5C 421.5,498.5 420.5,498.5 419.5,498.5C 419.5,499.833 419.5,501.167 419.5,502.5C 411.112,490.749 402.946,478.749 395,466.5C 393.711,463.649 393.211,460.649 393.5,457.5C 395.308,456.093 397.308,454.926 399.5,454C 430.165,453.5 460.832,453.333 491.5,453.5 Z"/></g>
<g><path style="opacity:1" fill="#4db8d1" d="M 693.5,454.5 C 694.794,455.29 695.961,456.29 697,457.5C 697.691,461.021 697.191,464.355 695.5,467.5C 692.453,470.545 689.787,473.878 687.5,477.5C 688.443,472.282 690.943,467.949 695,464.5C 695.682,460.931 695.182,457.598 693.5,454.5 Z"/></g>
<g><path style="opacity:1" fill="#32ade1" d="M 511.5,513.5 C 511.5,514.833 511.5,516.167 511.5,517.5C 500.833,518.167 500.833,518.833 511.5,519.5C 511.5,520.833 511.5,522.167 511.5,523.5C 507.407,523.522 503.407,524.189 499.5,525.5C 495.593,524.189 491.593,523.522 487.5,523.5C 487.5,522.167 487.5,520.833 487.5,519.5C 484.833,519.5 482.167,519.5 479.5,519.5C 479.5,518.5 479.5,517.5 479.5,516.5C 476.511,515.702 473.845,514.202 471.5,512C 467.5,511.833 463.5,511.667 459.5,511.5C 454.982,511.565 450.649,512.231 446.5,513.5C 443.579,510.737 440.913,510.904 438.5,514C 444.537,515.906 446.371,519.739 444,525.5C 441.236,523.902 439.403,521.569 438.5,518.5C 435.046,517.268 433.046,518.601 432.5,522.5C 427.672,516.183 423.338,509.516 419.5,502.5C 419.5,501.167 419.5,499.833 419.5,498.5C 420.5,498.5 421.5,498.5 422.5,498.5C 422.5,497.5 422.5,496.5 422.5,495.5C 425.079,496.553 427.579,497.887 430,499.5C 430.49,498.207 430.657,496.873 430.5,495.5C 442.505,495.333 454.505,495.5 466.5,496C 467.364,497.697 468.697,498.863 470.5,499.5C 471.429,500.689 471.762,502.022 471.5,503.5C 475.347,503.619 479.014,502.953 482.5,501.5C 482.338,503.527 482.505,505.527 483,507.5C 486.387,511.039 490.553,512.372 495.5,511.5C 495.5,513.167 495.5,514.833 495.5,516.5C 498.167,516.5 500.833,516.5 503.5,516.5C 503.5,515.5 503.5,514.5 503.5,513.5C 506.167,513.5 508.833,513.5 511.5,513.5 Z"/></g>
<g><path style="opacity:1" fill="#32ace2" d="M 661.5,517.5 C 647.886,539.109 633.886,560.442 619.5,581.5C 619.88,578.208 618.547,575.875 615.5,574.5C 616.167,573.5 616.833,572.5 617.5,571.5C 616.975,570.808 616.308,570.308 615.5,570C 616.931,569.535 618.097,568.701 619,567.5C 619.497,564.854 619.664,562.187 619.5,559.5C 615.5,559.5 611.5,559.5 607.5,559.5C 607.5,555.833 607.5,552.167 607.5,548.5C 602.167,548.5 596.833,548.5 591.5,548.5C 591.5,541.5 591.5,534.5 591.5,527.5C 586.167,527.5 580.833,527.5 575.5,527.5C 571.975,525.548 568.975,522.881 566.5,519.5C 565.52,516.914 565.187,514.247 565.5,511.5C 570.801,510.665 573.301,507.665 573,502.5C 572.586,502.043 572.086,501.709 571.5,501.5C 569.659,503.512 568.659,505.845 568.5,508.5C 566.315,508.888 564.482,509.888 563,511.5C 562.5,511.167 562,510.833 561.5,510.5C 563.038,508.757 564.038,506.757 564.5,504.5C 565.708,503.766 567.041,503.433 568.5,503.5C 568.833,501.5 569.167,499.5 569.5,497.5C 571.91,497.921 573.743,499.254 575,501.5C 575.664,498.647 575.164,495.981 573.5,493.5C 574.421,491.87 575.255,490.203 576,488.5C 581.407,490.682 581.573,492.849 576.5,495C 577.5,495.167 578.5,495.333 579.5,495.5C 581.921,495.771 582.587,495.105 581.5,493.5C 582.767,490.365 585.1,489.032 588.5,489.5C 588.643,491.262 588.309,492.929 587.5,494.5C 588.689,495.429 590.022,495.762 591.5,495.5C 591.5,500.833 591.5,506.167 591.5,511.5C 598.267,511.179 604.934,511.846 611.5,513.5C 615.407,512.189 619.407,511.522 623.5,511.5C 624.092,508.873 624.425,506.206 624.5,503.5C 626.833,503.5 629.167,503.5 631.5,503.5C 631.5,500.833 631.5,498.167 631.5,495.5C 634.167,495.5 636.833,495.5 639.5,495.5C 639.5,492.833 639.5,490.167 639.5,487.5C 648.5,487.5 657.5,487.5 666.5,487.5C 666.74,490.579 666.407,493.579 665.5,496.5C 666,496.833 666.5,497.167 667,497.5C 668.597,496.115 670.43,495.449 672.5,495.5C 672.649,496.552 672.483,497.552 672,498.5C 668.449,501.194 665.949,504.528 664.5,508.5C 663.325,508.719 662.325,508.386 661.5,507.5C 660.091,504.643 658.425,501.977 656.5,499.5C 656.167,500.667 655.833,501.833 655.5,503C 656.051,505.543 657.051,507.876 658.5,510C 658.265,510.873 657.931,511.707 657.5,512.5C 659.366,512.098 661.366,512.098 663.5,512.5C 661.995,513.842 661.328,515.508 661.5,517.5 Z"/></g>
<g><path style="opacity:1" fill="#cdf7f9" d="M 351.5,498.5 C 361.186,499.983 370.852,501.316 380.5,502.5C 370.455,502.871 360.788,501.538 351.5,498.5 Z"/></g>
<g><path style="opacity:1" fill="#2cb9ca" d="M 380.5,503.5 C 385.134,508.743 389.301,514.41 393,520.5C 400.085,531.402 406.918,542.402 413.5,553.5C 412.37,555.315 411.704,557.315 411.5,559.5C 410.167,559.5 408.833,559.5 407.5,559.5C 408.953,557.174 410.286,554.674 411.5,552C 410.405,550.325 408.905,549.158 407,548.5C 406.506,546.866 406.34,545.199 406.5,543.5C 404.058,543.881 403.391,543.214 404.5,541.5C 402.174,537.213 398.507,535.379 393.5,536C 392.333,535.5 391.5,534.667 391,533.5C 390.541,536.738 391.874,539.072 395,540.5C 396.333,539.833 397.667,539.167 399,538.5C 399.314,540.869 400.148,543.036 401.5,545C 400.493,546.52 399.827,548.187 399.5,550C 400.694,553.076 401.361,556.243 401.5,559.5C 398.167,559.5 394.833,559.5 391.5,559.5C 391.5,562.167 391.5,564.833 391.5,567.5C 389.585,567.216 387.919,567.549 386.5,568.5C 374.833,568.5 363.167,568.5 351.5,568.5C 351.5,570.833 351.5,573.167 351.5,575.5C 347.5,575.5 343.5,575.5 339.5,575.5C 338.167,575.5 336.833,575.5 335.5,575.5C 335.5,573.167 335.5,570.833 335.5,568.5C 330.167,568.5 324.833,568.5 319.5,568.5C 319.5,569.833 319.5,571.167 319.5,572.5C 314.167,572.5 308.833,572.5 303.5,572.5C 303.5,571.167 303.5,569.833 303.5,568.5C 287.5,568.5 271.5,568.5 255.5,568.5C 255.343,567.127 255.51,565.793 256,564.5C 258.124,563.378 259.957,561.878 261.5,560C 260.207,559.51 258.873,559.343 257.5,559.5C 256.833,554.167 256.167,548.833 255.5,543.5C 253.5,543.5 251.5,543.5 249.5,543.5C 249.5,541.167 249.5,538.833 249.5,536.5C 246.167,536.5 242.833,536.5 239.5,536.5C 239.5,535.5 239.5,534.5 239.5,533.5C 236.102,533.142 232.935,533.808 230,535.5C 227.744,533.915 225.244,533.248 222.5,533.5C 222.5,531.5 222.5,529.5 222.5,527.5C 222.333,511.497 222.5,495.497 223,479.5C 223.5,490.161 223.667,500.828 223.5,511.5C 234.167,511.5 244.833,511.5 255.5,511.5C 255.5,510.5 255.5,509.5 255.5,508.5C 266.094,506.951 276.76,506.284 287.5,506.5C 287.5,508.167 287.5,509.833 287.5,511.5C 292.833,511.5 298.167,511.5 303.5,511.5C 303.5,509.833 303.5,508.167 303.5,506.5C 308.833,506.5 314.167,506.5 319.5,506.5C 319.5,505.167 319.5,503.833 319.5,502.5C 324.833,502.5 330.167,502.5 335.5,502.5C 335.5,503.833 335.5,505.167 335.5,506.5C 337.924,506.808 340.257,506.474 342.5,505.5C 341.263,504.719 340.263,503.719 339.5,502.5C 349.682,500.675 359.515,501.675 369,505.5C 371.805,504.403 374.638,504.403 377.5,505.5C 379.03,505.36 380.03,504.693 380.5,503.5 Z"/></g>
<g><path style="opacity:1" fill="#31aae3" d="M 530.5,511.5 C 535.528,517.716 540.195,524.216 544.5,531C 545.167,531.667 545.833,531.667 546.5,531C 547.163,529.482 548.163,528.315 549.5,527.5C 551.048,527.179 551.715,526.179 551.5,524.5C 552.5,524.5 553.5,524.5 554.5,524.5C 554.47,520.789 555.47,520.122 557.5,522.5C 556.095,524.755 554.428,526.922 552.5,529C 552.946,530.726 553.779,532.226 555,533.5C 554.923,532.262 555.089,531.262 555.5,530.5C 556.086,530.709 556.586,531.043 557,531.5C 557.684,530.216 557.517,529.049 556.5,528C 557.047,527.075 557.713,526.242 558.5,525.5C 559.466,527.396 559.799,529.396 559.5,531.5C 564.833,531.5 570.167,531.5 575.5,531.5C 575.5,530.167 575.5,528.833 575.5,527.5C 580.833,527.5 586.167,527.5 591.5,527.5C 591.5,534.5 591.5,541.5 591.5,548.5C 596.833,548.5 602.167,548.5 607.5,548.5C 607.5,552.167 607.5,555.833 607.5,559.5C 611.5,559.5 615.5,559.5 619.5,559.5C 619.664,562.187 619.497,564.854 619,567.5C 618.097,568.701 616.931,569.535 615.5,570C 616.308,570.308 616.975,570.808 617.5,571.5C 616.833,572.5 616.167,573.5 615.5,574.5C 618.547,575.875 619.88,578.208 619.5,581.5C 615.859,587.795 611.859,593.795 607.5,599.5C 607.215,597.712 607.548,596.045 608.5,594.5C 610.444,592.72 611.777,590.553 612.5,588C 608.553,583.806 608.887,579.806 613.5,576C 611.555,576.128 609.722,575.962 608,575.5C 607.503,573.19 607.337,570.857 607.5,568.5C 604.833,568.5 602.167,568.5 599.5,568.5C 599.5,569.5 599.5,570.5 599.5,571.5C 596.833,571.5 594.167,571.5 591.5,571.5C 591.5,570.5 591.5,569.5 591.5,568.5C 586.167,568.5 580.833,568.5 575.5,568.5C 575.5,570.833 575.5,573.167 575.5,575.5C 580.833,575.5 586.167,575.5 591.5,575.5C 591.5,576.5 591.5,577.5 591.5,578.5C 582.077,578.063 572.744,578.73 563.5,580.5C 557.92,579.09 552.253,578.257 546.5,578C 546.043,577.586 545.709,577.086 545.5,576.5C 534.186,575.501 522.853,575.168 511.5,575.5C 511.5,576.5 511.5,577.5 511.5,578.5C 506.167,578.5 500.833,578.5 495.5,578.5C 495.5,577.5 495.5,576.5 495.5,575.5C 489.638,575.246 484.138,576.246 479,578.5C 479.155,576.189 479.155,573.856 479,571.5C 477.858,574.376 475.692,576.042 472.5,576.5C 471.355,577.891 471.355,579.224 472.5,580.5C 474.071,579.691 475.738,579.357 477.5,579.5C 477.753,581.827 477.086,583.827 475.5,585.5C 477.007,586.739 478.174,586.405 479,584.5C 478.337,587.518 478.504,590.518 479.5,593.5C 463.064,570.281 447.397,546.614 432.5,522.5C 433.046,518.601 435.046,517.268 438.5,518.5C 439.403,521.569 441.236,523.902 444,525.5C 446.371,519.739 444.537,515.906 438.5,514C 440.913,510.904 443.579,510.737 446.5,513.5C 450.649,512.231 454.982,511.565 459.5,511.5C 463.5,511.667 467.5,511.833 471.5,512C 473.845,514.202 476.511,515.702 479.5,516.5C 479.5,517.5 479.5,518.5 479.5,519.5C 482.167,519.5 484.833,519.5 487.5,519.5C 487.5,520.833 487.5,522.167 487.5,523.5C 491.593,523.522 495.593,524.189 499.5,525.5C 503.407,524.189 507.407,523.522 511.5,523.5C 511.5,522.167 511.5,520.833 511.5,519.5C 500.833,518.833 500.833,518.167 511.5,517.5C 511.5,516.167 511.5,514.833 511.5,513.5C 512.78,512.069 514.447,511.402 516.5,511.5C 516.351,510.448 516.517,509.448 517,508.5C 518.61,506.269 520.443,504.269 522.5,502.5C 524.283,504.023 524.949,506.023 524.5,508.5C 525.5,508.5 526.5,508.5 527.5,508.5C 527.343,509.873 527.51,511.207 528,512.5C 528.671,511.748 529.504,511.414 530.5,511.5 Z"/></g>
<g><path style="opacity:1" fill="#35addd" d="M 575.5,527.5 C 575.5,528.833 575.5,530.167 575.5,531.5C 570.167,531.5 564.833,531.5 559.5,531.5C 559.799,529.396 559.466,527.396 558.5,525.5C 557.713,526.242 557.047,527.075 556.5,528C 557.517,529.049 557.684,530.216 557,531.5C 556.586,531.043 556.086,530.709 555.5,530.5C 555.089,531.262 554.923,532.262 555,533.5C 553.779,532.226 552.946,530.726 552.5,529C 554.428,526.922 556.095,524.755 557.5,522.5C 555.47,520.122 554.47,520.789 554.5,524.5C 553.5,524.5 552.5,524.5 551.5,524.5C 551.715,526.179 551.048,527.179 549.5,527.5C 552.077,522.406 554.911,517.406 558,512.5C 560.031,509.645 562.197,506.978 564.5,504.5C 564.038,506.757 563.038,508.757 561.5,510.5C 562,510.833 562.5,511.167 563,511.5C 564.482,509.888 566.315,508.888 568.5,508.5C 568.659,505.845 569.659,503.512 571.5,501.5C 572.086,501.709 572.586,502.043 573,502.5C 573.301,507.665 570.801,510.665 565.5,511.5C 565.187,514.247 565.52,516.914 566.5,519.5C 568.975,522.881 571.975,525.548 575.5,527.5 Z"/></g>
<g><path style="opacity:1" fill="#d4f7f8" d="M 213.5,463.5 C 213.333,476.837 213.5,490.171 214,503.5C 214.178,509.734 215.012,515.734 216.5,521.5C 217.167,528.833 217.833,536.167 218.5,543.5C 215.799,533.463 213.966,523.13 213,512.5C 212.172,495.995 212.338,479.661 213.5,463.5 Z"/></g>
<g><path style="opacity:1" fill="#2cb7ca" d="M 219.5,495.5 C 217.543,498.091 217.543,500.591 219.5,503C 219.135,511.077 219.135,519.244 219.5,527.5C 220.5,527.5 221.5,527.5 222.5,527.5C 222.5,529.5 222.5,531.5 222.5,533.5C 225.244,533.248 227.744,533.915 230,535.5C 232.935,533.808 236.102,533.142 239.5,533.5C 239.5,534.5 239.5,535.5 239.5,536.5C 242.833,536.5 246.167,536.5 249.5,536.5C 249.5,538.833 249.5,541.167 249.5,543.5C 251.5,543.5 253.5,543.5 255.5,543.5C 256.167,548.833 256.833,554.167 257.5,559.5C 258.873,559.343 260.207,559.51 261.5,560C 259.957,561.878 258.124,563.378 256,564.5C 255.51,565.793 255.343,567.127 255.5,568.5C 255.5,571.833 255.5,575.167 255.5,578.5C 258.14,578.954 260.473,580.121 262.5,582C 263.337,583.011 263.67,584.178 263.5,585.5C 266.167,585.5 268.833,585.5 271.5,585.5C 271.5,586.833 271.5,588.167 271.5,589.5C 260.833,590.167 260.833,590.833 271.5,591.5C 271.663,593.857 271.497,596.19 271,598.5C 270.51,597.207 270.343,595.873 270.5,594.5C 268.167,594.5 265.833,594.5 263.5,594.5C 263.768,596.099 263.434,597.432 262.5,598.5C 262.5,596.167 262.5,593.833 262.5,591.5C 260.167,591.5 257.833,591.5 255.5,591.5C 255.5,590.5 255.5,589.5 255.5,588.5C 250.167,588.5 244.833,588.5 239.5,588.5C 239.719,589.675 239.386,590.675 238.5,591.5C 236.48,589.401 236.146,587.067 237.5,584.5C 238.192,585.025 238.692,585.692 239,586.5C 239.667,582.833 239.667,579.167 239,575.5C 236.432,579.824 234.266,584.158 232.5,588.5C 227.352,573.551 222.685,558.551 218.5,543.5C 217.833,536.167 217.167,528.833 216.5,521.5C 215.625,502.163 215.958,482.83 217.5,463.5C 218.831,474.125 219.497,484.792 219.5,495.5 Z"/></g>
<g><path style="opacity:1" fill="#2db7cd" d="M 413.5,553.5 C 425.472,570.088 436.972,587.088 448,604.5C 449.731,610.714 448.231,616.048 443.5,620.5C 442.33,618.721 440.664,617.721 438.5,617.5C 438.5,618.5 438.5,619.5 438.5,620.5C 437.5,620.5 436.5,620.5 435.5,620.5C 436.048,615.85 438.048,611.85 441.5,608.5C 440.833,607.833 440.167,607.167 439.5,606.5C 441.173,604.477 441.84,602.144 441.5,599.5C 438.612,599.22 437.112,600.553 437,603.5C 435.506,604.747 434.006,604.747 432.5,603.5C 433.374,601.253 433.708,598.92 433.5,596.5C 434.833,596.5 436.167,596.5 437.5,596.5C 437.826,593.393 436.659,591.06 434,589.5C 434.122,586.043 432.788,583.376 430,581.5C 428.251,582.41 427.084,583.743 426.5,585.5C 422.14,583.405 421.473,580.405 424.5,576.5C 422.668,575.752 421.001,574.752 419.5,573.5C 418.41,574.391 418.41,575.391 419.5,576.5C 416.817,582.155 415.484,581.822 415.5,575.5C 405.833,575.5 396.167,575.5 386.5,575.5C 386.5,573.167 386.5,570.833 386.5,568.5C 387.919,567.549 389.585,567.216 391.5,567.5C 391.5,564.833 391.5,562.167 391.5,559.5C 394.833,559.5 398.167,559.5 401.5,559.5C 401.361,556.243 400.694,553.076 399.5,550C 399.827,548.187 400.493,546.52 401.5,545C 400.148,543.036 399.314,540.869 399,538.5C 397.667,539.167 396.333,539.833 395,540.5C 391.874,539.072 390.541,536.738 391,533.5C 391.5,534.667 392.333,535.5 393.5,536C 398.507,535.379 402.174,537.213 404.5,541.5C 403.391,543.214 404.058,543.881 406.5,543.5C 406.34,545.199 406.506,546.866 407,548.5C 408.905,549.158 410.405,550.325 411.5,552C 410.286,554.674 408.953,557.174 407.5,559.5C 408.833,559.5 410.167,559.5 411.5,559.5C 411.704,557.315 412.37,555.315 413.5,553.5 Z"/></g>
<g><path style="opacity:1" fill="#2cb6d0" d="M 386.5,568.5 C 386.5,570.833 386.5,573.167 386.5,575.5C 396.167,575.5 405.833,575.5 415.5,575.5C 415.484,581.822 416.817,582.155 419.5,576.5C 418.41,575.391 418.41,574.391 419.5,573.5C 421.001,574.752 422.668,575.752 424.5,576.5C 421.473,580.405 422.14,583.405 426.5,585.5C 426.489,587.017 425.823,588.184 424.5,589C 426.9,589.186 429.234,589.686 431.5,590.5C 432.415,591.328 433.081,592.328 433.5,593.5C 431.702,596.564 430.702,599.897 430.5,603.5C 428.5,603.5 426.5,603.5 424.5,603.5C 424.657,604.873 424.49,606.207 424,607.5C 423.667,604.833 423.333,602.167 423,599.5C 422.51,600.793 422.343,602.127 422.5,603.5C 420.5,603.5 418.5,603.5 416.5,603.5C 416.5,604.833 416.5,606.167 416.5,607.5C 407.167,607.5 397.833,607.5 388.5,607.5C 388.5,605.167 388.5,602.833 388.5,600.5C 386.833,600.5 385.167,600.5 383.5,600.5C 383.5,602.833 383.5,605.167 383.5,607.5C 372.833,607.5 362.167,607.5 351.5,607.5C 351.5,606.5 351.5,605.5 351.5,604.5C 340.833,604.5 330.167,604.5 319.5,604.5C 319.5,605.5 319.5,606.5 319.5,607.5C 314.167,607.5 308.833,607.5 303.5,607.5C 303.5,609.167 303.5,610.833 303.5,612.5C 292.41,611.87 281.577,612.537 271,614.5C 264.703,610.958 261.87,605.625 262.5,598.5C 263.434,597.432 263.768,596.099 263.5,594.5C 265.833,594.5 268.167,594.5 270.5,594.5C 270.343,595.873 270.51,597.207 271,598.5C 271.497,596.19 271.663,593.857 271.5,591.5C 276.833,591.5 282.167,591.5 287.5,591.5C 287.5,592.5 287.5,593.5 287.5,594.5C 292.833,594.5 298.167,594.5 303.5,594.5C 303.5,593.5 303.5,592.5 303.5,591.5C 308.833,591.5 314.167,591.5 319.5,591.5C 319.5,592.5 319.5,593.5 319.5,594.5C 335.5,594.5 351.5,594.5 367.5,594.5C 367.5,593.5 367.5,592.5 367.5,591.5C 362.167,591.5 356.833,591.5 351.5,591.5C 351.5,587.833 351.5,584.167 351.5,580.5C 348.833,580.5 346.167,580.5 343.5,580.5C 343.5,582.5 343.5,584.5 343.5,586.5C 342.167,586.5 340.833,586.5 339.5,586.5C 339.5,582.833 339.5,579.167 339.5,575.5C 343.5,575.5 347.5,575.5 351.5,575.5C 351.5,573.167 351.5,570.833 351.5,568.5C 363.167,568.5 374.833,568.5 386.5,568.5 Z"/></g>
<g><path style="opacity:1" fill="#2bb7ce" d="M 255.5,568.5 C 271.5,568.5 287.5,568.5 303.5,568.5C 303.5,569.833 303.5,571.167 303.5,572.5C 308.833,572.5 314.167,572.5 319.5,572.5C 319.5,571.167 319.5,569.833 319.5,568.5C 324.833,568.5 330.167,568.5 335.5,568.5C 335.5,570.833 335.5,573.167 335.5,575.5C 336.833,575.5 338.167,575.5 339.5,575.5C 339.5,579.167 339.5,582.833 339.5,586.5C 340.833,586.5 342.167,586.5 343.5,586.5C 343.5,584.5 343.5,582.5 343.5,580.5C 346.167,580.5 348.833,580.5 351.5,580.5C 351.5,584.167 351.5,587.833 351.5,591.5C 356.833,591.5 362.167,591.5 367.5,591.5C 367.5,592.5 367.5,593.5 367.5,594.5C 351.5,594.5 335.5,594.5 319.5,594.5C 319.5,593.5 319.5,592.5 319.5,591.5C 314.167,591.5 308.833,591.5 303.5,591.5C 303.5,592.5 303.5,593.5 303.5,594.5C 298.167,594.5 292.833,594.5 287.5,594.5C 287.5,593.5 287.5,592.5 287.5,591.5C 282.167,591.5 276.833,591.5 271.5,591.5C 260.833,590.833 260.833,590.167 271.5,589.5C 271.5,588.167 271.5,586.833 271.5,585.5C 268.833,585.5 266.167,585.5 263.5,585.5C 263.67,584.178 263.337,583.011 262.5,582C 260.473,580.121 258.14,578.954 255.5,578.5C 255.5,575.167 255.5,571.833 255.5,568.5 Z"/></g>
<g><path style="opacity:1" fill="#32a5e3" d="M 607.5,599.5 C 604.667,604.456 603.833,609.789 605,615.5C 610.437,623.387 615.604,631.387 620.5,639.5C 617.647,638.811 615.981,636.978 615.5,634C 614.002,633.415 613.002,633.915 612.5,635.5C 611.176,636.85 610.176,636.683 609.5,635C 610.477,633.503 611.477,632.003 612.5,630.5C 610.243,627.508 608.576,624.175 607.5,620.5C 605.408,620.439 603.908,619.439 603,617.5C 601.337,619.158 600.504,621.158 600.5,623.5C 599.5,623.5 598.5,623.5 597.5,623.5C 596.955,620.187 596.455,616.854 596,613.5C 594.915,612.707 593.748,612.04 592.5,611.5C 591.816,615.446 591.816,619.446 592.5,623.5C 570.833,623.5 549.167,623.5 527.5,623.5C 527.5,622.167 527.5,620.833 527.5,619.5C 530.167,619.5 532.833,619.5 535.5,619.5C 535.5,618.167 535.5,616.833 535.5,615.5C 532.833,615.5 530.167,615.5 527.5,615.5C 527.5,607.5 527.5,599.5 527.5,591.5C 522.167,591.5 516.833,591.5 511.5,591.5C 511.5,599.5 511.5,607.5 511.5,615.5C 512.5,615.5 513.5,615.5 514.5,615.5C 514.5,618.167 514.5,620.833 514.5,623.5C 508.167,623.5 501.833,623.5 495.5,623.5C 495.5,626.5 495.5,629.5 495.5,632.5C 490.821,632.666 486.155,632.499 481.5,632C 480.299,631.097 479.465,629.931 479,628.5C 479.351,630.886 479.185,633.219 478.5,635.5C 477.717,633.712 476.384,632.712 474.5,632.5C 477.748,626.736 481.248,621.069 485,615.5C 485.667,611.5 485.667,607.5 485,603.5C 482.909,600.26 481.076,596.926 479.5,593.5C 478.504,590.518 478.337,587.518 479,584.5C 478.174,586.405 477.007,586.739 475.5,585.5C 477.086,583.827 477.753,581.827 477.5,579.5C 475.738,579.357 474.071,579.691 472.5,580.5C 471.355,579.224 471.355,577.891 472.5,576.5C 475.692,576.042 477.858,574.376 479,571.5C 479.155,573.856 479.155,576.189 479,578.5C 484.138,576.246 489.638,575.246 495.5,575.5C 495.5,576.5 495.5,577.5 495.5,578.5C 500.833,578.5 506.167,578.5 511.5,578.5C 511.5,577.5 511.5,576.5 511.5,575.5C 522.853,575.168 534.186,575.501 545.5,576.5C 545.709,577.086 546.043,577.586 546.5,578C 552.253,578.257 557.92,579.09 563.5,580.5C 572.744,578.73 582.077,578.063 591.5,578.5C 591.5,577.5 591.5,576.5 591.5,575.5C 586.167,575.5 580.833,575.5 575.5,575.5C 575.5,573.167 575.5,570.833 575.5,568.5C 580.833,568.5 586.167,568.5 591.5,568.5C 591.5,569.5 591.5,570.5 591.5,571.5C 594.167,571.5 596.833,571.5 599.5,571.5C 599.5,570.5 599.5,569.5 599.5,568.5C 602.167,568.5 604.833,568.5 607.5,568.5C 607.337,570.857 607.503,573.19 608,575.5C 609.722,575.962 611.555,576.128 613.5,576C 608.887,579.806 608.553,583.806 612.5,588C 611.777,590.553 610.444,592.72 608.5,594.5C 607.548,596.045 607.215,597.712 607.5,599.5 Z"/></g>
<g><path style="opacity:1" fill="#31a3e4" d="M 612.5,635.5 C 611.993,636.859 610.993,637.859 609.5,638.5C 611.045,639.452 612.712,639.785 614.5,639.5C 614.338,641.527 614.505,643.527 615,645.5C 619.171,647.827 622.005,651.161 623.5,655.5C 619.558,656.143 616.224,655.143 613.5,652.5C 611.547,651.844 609.547,651.511 607.5,651.5C 608.179,649.332 609.179,647.332 610.5,645.5C 610.547,644 609.881,643 608.5,642.5C 601.702,644.286 594.702,645.286 587.5,645.5C 580.859,644.668 574.192,644.335 567.5,644.5C 567.5,645.5 567.5,646.5 567.5,647.5C 562.167,647.5 556.833,647.5 551.5,647.5C 551.5,646.5 551.5,645.5 551.5,644.5C 546.167,643.833 540.833,643.167 535.5,642.5C 535.5,641.5 535.5,640.5 535.5,639.5C 532.833,639.5 530.167,639.5 527.5,639.5C 527.5,641.167 527.5,642.833 527.5,644.5C 522.167,643.833 516.833,643.167 511.5,642.5C 511.5,641.5 511.5,640.5 511.5,639.5C 506.167,639.5 500.833,639.5 495.5,639.5C 495.5,641.5 495.5,643.5 495.5,645.5C 490.167,645.5 484.833,645.5 479.5,645.5C 479.719,644.325 479.386,643.325 478.5,642.5C 477.571,643.689 477.238,645.022 477.5,646.5C 473.686,646.651 472.019,648.651 472.5,652.5C 470.005,653.199 467.672,654.199 465.5,655.5C 464.862,650.55 464.029,650.883 463,656.5C 461.989,655.663 460.822,655.33 459.5,655.5C 464.14,647.541 469.14,639.874 474.5,632.5C 476.384,632.712 477.717,633.712 478.5,635.5C 479.185,633.219 479.351,630.886 479,628.5C 479.465,629.931 480.299,631.097 481.5,632C 486.155,632.499 490.821,632.666 495.5,632.5C 495.5,629.5 495.5,626.5 495.5,623.5C 501.833,623.5 508.167,623.5 514.5,623.5C 514.5,620.833 514.5,618.167 514.5,615.5C 513.5,615.5 512.5,615.5 511.5,615.5C 511.5,607.5 511.5,599.5 511.5,591.5C 516.833,591.5 522.167,591.5 527.5,591.5C 527.5,599.5 527.5,607.5 527.5,615.5C 530.167,615.5 532.833,615.5 535.5,615.5C 535.5,616.833 535.5,618.167 535.5,619.5C 532.833,619.5 530.167,619.5 527.5,619.5C 527.5,620.833 527.5,622.167 527.5,623.5C 549.167,623.5 570.833,623.5 592.5,623.5C 591.816,619.446 591.816,615.446 592.5,611.5C 593.748,612.04 594.915,612.707 596,613.5C 596.455,616.854 596.955,620.187 597.5,623.5C 598.5,623.5 599.5,623.5 600.5,623.5C 600.504,621.158 601.337,619.158 603,617.5C 603.908,619.439 605.408,620.439 607.5,620.5C 608.576,624.175 610.243,627.508 612.5,630.5C 611.477,632.003 610.477,633.503 609.5,635C 610.176,636.683 611.176,636.85 612.5,635.5 Z"/></g>
<g><path style="opacity:1" fill="#2db2d1" d="M 262.5,598.5 C 261.87,605.625 264.703,610.958 271,614.5C 281.577,612.537 292.41,611.87 303.5,612.5C 303.5,610.833 303.5,609.167 303.5,607.5C 308.833,607.5 314.167,607.5 319.5,607.5C 319.5,606.5 319.5,605.5 319.5,604.5C 330.167,604.5 340.833,604.5 351.5,604.5C 351.5,605.5 351.5,606.5 351.5,607.5C 362.167,607.5 372.833,607.5 383.5,607.5C 383.5,605.167 383.5,602.833 383.5,600.5C 385.167,600.5 386.833,600.5 388.5,600.5C 388.5,602.833 388.5,605.167 388.5,607.5C 397.833,607.5 407.167,607.5 416.5,607.5C 416.5,606.167 416.5,604.833 416.5,603.5C 418.5,603.5 420.5,603.5 422.5,603.5C 422.343,602.127 422.51,600.793 423,599.5C 423.333,602.167 423.667,604.833 424,607.5C 424.49,606.207 424.657,604.873 424.5,603.5C 426.5,603.5 428.5,603.5 430.5,603.5C 430.702,599.897 431.702,596.564 433.5,593.5C 433.081,592.328 432.415,591.328 431.5,590.5C 429.234,589.686 426.9,589.186 424.5,589C 425.823,588.184 426.489,587.017 426.5,585.5C 427.084,583.743 428.251,582.41 430,581.5C 432.788,583.376 434.122,586.043 434,589.5C 436.659,591.06 437.826,593.393 437.5,596.5C 436.167,596.5 434.833,596.5 433.5,596.5C 433.708,598.92 433.374,601.253 432.5,603.5C 434.006,604.747 435.506,604.747 437,603.5C 437.112,600.553 438.612,599.22 441.5,599.5C 441.84,602.144 441.173,604.477 439.5,606.5C 440.167,607.167 440.833,607.833 441.5,608.5C 438.048,611.85 436.048,615.85 435.5,620.5C 436.5,620.5 437.5,620.5 438.5,620.5C 438.5,619.5 438.5,618.5 438.5,617.5C 440.664,617.721 442.33,618.721 443.5,620.5C 436.576,632.688 428.909,644.355 420.5,655.5C 420.66,653.801 420.494,652.134 420,650.5C 417.739,649.228 417.239,647.562 418.5,645.5C 419.5,647.167 420.833,648.5 422.5,649.5C 424.716,646.23 427.049,643.063 429.5,640C 427.866,639.506 426.199,639.34 424.5,639.5C 424.5,640.5 424.5,641.5 424.5,642.5C 423.167,642.5 421.833,642.5 420.5,642.5C 420.5,641.5 420.5,640.5 420.5,639.5C 418.712,639.215 417.045,639.548 415.5,640.5C 415.404,645.423 415.737,650.423 416.5,655.5C 415.127,655.343 413.793,655.51 412.5,656C 412.957,656.414 413.291,656.914 413.5,657.5C 411.862,658.958 410.195,659.292 408.5,658.5C 407.845,655.499 407.512,652.166 407.5,648.5C 399.5,648.5 391.5,648.5 383.5,648.5C 383.5,647.167 383.5,645.833 383.5,644.5C 373.833,644.5 364.167,644.5 354.5,644.5C 353.265,646.773 353.598,648.606 355.5,650C 346.158,650.434 336.825,650.934 327.5,651.5C 327.5,652.833 327.5,654.167 327.5,655.5C 324.833,655.5 322.167,655.5 319.5,655.5C 319.5,656.833 319.5,658.167 319.5,659.5C 316.833,659.5 314.167,659.5 311.5,659.5C 311.5,660.5 311.5,661.5 311.5,662.5C 308.833,662.5 306.167,662.5 303.5,662.5C 303.5,661.167 303.5,659.833 303.5,658.5C 297.697,657.913 292.197,658.58 287,660.5C 285.5,659 284,657.5 282.5,656C 281.056,655.219 279.723,655.386 278.5,656.5C 281.547,658.915 284.381,661.582 287,664.5C 287.6,667.095 287.1,669.429 285.5,671.5C 282.194,667.527 278.527,663.86 274.5,660.5C 256.92,638.686 242.92,614.686 232.5,588.5C 234.266,584.158 236.432,579.824 239,575.5C 239.667,579.167 239.667,582.833 239,586.5C 238.692,585.692 238.192,585.025 237.5,584.5C 236.146,587.067 236.48,589.401 238.5,591.5C 239.386,590.675 239.719,589.675 239.5,588.5C 244.833,588.5 250.167,588.5 255.5,588.5C 255.5,589.5 255.5,590.5 255.5,591.5C 257.833,591.5 260.167,591.5 262.5,591.5C 262.5,593.833 262.5,596.167 262.5,598.5 Z"/></g>
<g><path style="opacity:1" fill="#35b4d0" d="M 703.5,660.5 C 701.167,660.5 698.833,660.5 696.5,660.5C 697.785,662.855 697.785,664.688 696.5,666C 694.457,667.708 692.79,669.708 691.5,672C 690.275,672.563 689.275,672.23 688.5,671C 693.086,668.611 693.752,665.277 690.5,661C 691.996,660.493 693.163,660.993 694,662.5C 694.374,661.584 694.874,660.75 695.5,660C 694.289,658.887 694.289,657.72 695.5,656.5C 692.417,655.418 690.417,653.418 689.5,650.5C 687.131,650.149 684.797,649.982 682.5,650C 683.833,650.667 683.833,651.333 682.5,652C 680.833,652.333 679.167,652.667 677.5,653C 677.833,653.333 678.167,653.667 678.5,654C 676.187,654.662 673.854,655.162 671.5,655.5C 671.5,656.5 671.5,657.5 671.5,658.5C 662.109,645.407 652.942,632.073 644,618.5C 643.312,617.668 643.479,617.002 644.5,616.5C 665.128,629.97 684.794,644.636 703.5,660.5 Z"/></g>
<g><path style="opacity:1" fill="#2dafd5" d="M 420.5,655.5 C 415.66,663.852 410.327,671.852 404.5,679.5C 404.421,678.07 404.754,676.736 405.5,675.5C 404.311,674.571 402.978,674.238 401.5,674.5C 400.551,672.263 399.884,669.929 399.5,667.5C 396.833,667.5 394.167,667.5 391.5,667.5C 391.5,666.167 391.5,664.833 391.5,663.5C 390.167,663.5 388.833,663.5 387.5,663.5C 387.5,666.167 387.5,668.833 387.5,671.5C 382.167,671.5 376.833,671.5 371.5,671.5C 371.5,674.167 371.5,676.833 371.5,679.5C 370.167,679.5 368.833,679.5 367.5,679.5C 367.5,676.833 367.5,674.167 367.5,671.5C 362.167,671.5 356.833,671.5 351.5,671.5C 351.5,674.167 351.5,676.833 351.5,679.5C 350.167,679.5 348.833,679.5 347.5,679.5C 347.5,676.833 347.5,674.167 347.5,671.5C 344.833,671.5 342.167,671.5 339.5,671.5C 339.5,674.167 339.5,676.833 339.5,679.5C 331.5,679.5 323.5,679.5 315.5,679.5C 315.5,676.833 315.5,674.167 315.5,671.5C 310.321,671.198 305.321,671.865 300.5,673.5C 300.5,674.5 300.5,675.5 300.5,676.5C 299.448,676.649 298.448,676.483 297.5,676C 295.53,672.84 292.864,671.674 289.5,672.5C 295.275,676.274 299.941,680.941 303.5,686.5C 297.131,681.977 291.131,676.977 285.5,671.5C 287.1,669.429 287.6,667.095 287,664.5C 284.381,661.582 281.547,658.915 278.5,656.5C 279.723,655.386 281.056,655.219 282.5,656C 284,657.5 285.5,659 287,660.5C 292.197,658.58 297.697,657.913 303.5,658.5C 303.5,659.833 303.5,661.167 303.5,662.5C 306.167,662.5 308.833,662.5 311.5,662.5C 311.5,661.5 311.5,660.5 311.5,659.5C 314.167,659.5 316.833,659.5 319.5,659.5C 319.5,658.167 319.5,656.833 319.5,655.5C 322.167,655.5 324.833,655.5 327.5,655.5C 327.5,654.167 327.5,652.833 327.5,651.5C 336.825,650.934 346.158,650.434 355.5,650C 353.598,648.606 353.265,646.773 354.5,644.5C 364.167,644.5 373.833,644.5 383.5,644.5C 383.5,645.833 383.5,647.167 383.5,648.5C 391.5,648.5 399.5,648.5 407.5,648.5C 407.512,652.166 407.845,655.499 408.5,658.5C 410.195,659.292 411.862,658.958 413.5,657.5C 413.291,656.914 412.957,656.414 412.5,656C 413.793,655.51 415.127,655.343 416.5,655.5C 415.737,650.423 415.404,645.423 415.5,640.5C 417.045,639.548 418.712,639.215 420.5,639.5C 420.5,640.5 420.5,641.5 420.5,642.5C 421.833,642.5 423.167,642.5 424.5,642.5C 424.5,641.5 424.5,640.5 424.5,639.5C 426.199,639.34 427.866,639.506 429.5,640C 427.049,643.063 424.716,646.23 422.5,649.5C 420.833,648.5 419.5,647.167 418.5,645.5C 417.239,647.562 417.739,649.228 420,650.5C 420.494,652.134 420.66,653.801 420.5,655.5 Z"/></g>
<g><path style="opacity:1" fill="#32a0e5" d="M 620.5,639.5 C 624.648,644.448 628.314,649.782 631.5,655.5C 630.766,658.677 629.766,661.844 628.5,665C 628.833,665.833 629.167,666.667 629.5,667.5C 630.99,665.874 632.49,664.208 634,662.5C 635.236,665.417 635.736,668.417 635.5,671.5C 636.409,669.625 637.743,668.292 639.5,667.5C 645.093,675.692 650.427,684.025 655.5,692.5C 651.21,689.191 646.877,685.858 642.5,682.5C 642.242,680.091 642.242,677.758 642.5,675.5C 640.244,676.421 639.244,678.088 639.5,680.5C 628.833,680.5 618.167,680.5 607.5,680.5C 607.5,679.167 607.5,677.833 607.5,676.5C 599.483,676.499 591.483,676.166 583.5,675.5C 583.5,674.167 583.5,672.833 583.5,671.5C 580.833,671.5 578.167,671.5 575.5,671.5C 575.5,674.5 575.5,677.5 575.5,680.5C 573.833,680.5 572.167,680.5 570.5,680.5C 570.5,682.833 570.5,685.167 570.5,687.5C 566.774,687.177 563.107,687.511 559.5,688.5C 557.762,691.874 556.096,695.207 554.5,698.5C 552.347,696.206 550.68,693.54 549.5,690.5C 550.5,690.5 551.5,690.5 552.5,690.5C 552.281,691.675 552.614,692.675 553.5,693.5C 554.83,691.907 556.164,690.24 557.5,688.5C 556.609,687.41 555.609,687.41 554.5,688.5C 553.453,687.078 553.453,685.578 554.5,684C 553.922,682.189 553.422,680.355 553,678.5C 549.817,677.018 546.651,676.684 543.5,677.5C 543.343,676.127 543.51,674.793 544,673.5C 548.982,675.497 554.149,676.33 559.5,676C 556.553,675.888 555.22,674.388 555.5,671.5C 551.5,671.5 547.5,671.5 543.5,671.5C 543.5,670.5 543.5,669.5 543.5,668.5C 532.833,668.5 522.167,668.5 511.5,668.5C 511.5,671.167 511.5,673.833 511.5,676.5C 506.167,676.5 500.833,676.5 495.5,676.5C 495.5,674.833 495.5,673.167 495.5,671.5C 484.833,671.5 474.167,671.5 463.5,671.5C 463.392,669.217 462.559,667.217 461,665.5C 458.534,669.623 455.034,670.956 450.5,669.5C 450.976,671.993 452.31,673.993 454.5,675.5C 452.927,677.836 451.594,677.836 450.5,675.5C 448.929,676.309 447.262,676.643 445.5,676.5C 449.933,669.286 454.6,662.286 459.5,655.5C 460.822,655.33 461.989,655.663 463,656.5C 464.029,650.883 464.862,650.55 465.5,655.5C 467.672,654.199 470.005,653.199 472.5,652.5C 472.019,648.651 473.686,646.651 477.5,646.5C 477.238,645.022 477.571,643.689 478.5,642.5C 479.386,643.325 479.719,644.325 479.5,645.5C 484.833,645.5 490.167,645.5 495.5,645.5C 495.5,643.5 495.5,641.5 495.5,639.5C 500.833,639.5 506.167,639.5 511.5,639.5C 511.5,640.5 511.5,641.5 511.5,642.5C 516.833,643.167 522.167,643.833 527.5,644.5C 527.5,642.833 527.5,641.167 527.5,639.5C 530.167,639.5 532.833,639.5 535.5,639.5C 535.5,640.5 535.5,641.5 535.5,642.5C 540.833,643.167 546.167,643.833 551.5,644.5C 551.5,645.5 551.5,646.5 551.5,647.5C 556.833,647.5 562.167,647.5 567.5,647.5C 567.5,646.5 567.5,645.5 567.5,644.5C 574.192,644.335 580.859,644.668 587.5,645.5C 594.702,645.286 601.702,644.286 608.5,642.5C 609.881,643 610.547,644 610.5,645.5C 609.179,647.332 608.179,649.332 607.5,651.5C 609.547,651.511 611.547,651.844 613.5,652.5C 616.224,655.143 619.558,656.143 623.5,655.5C 622.005,651.161 619.171,647.827 615,645.5C 614.505,643.527 614.338,641.527 614.5,639.5C 612.712,639.785 611.045,639.452 609.5,638.5C 610.993,637.859 611.993,636.859 612.5,635.5C 613.002,633.915 614.002,633.415 615.5,634C 615.981,636.978 617.647,638.811 620.5,639.5 Z"/></g>
<g><path style="opacity:1" fill="#3ca3da" d="M 631.5,655.5 C 634.167,659.5 636.833,663.5 639.5,667.5C 637.743,668.292 636.409,669.625 635.5,671.5C 635.736,668.417 635.236,665.417 634,662.5C 632.49,664.208 630.99,665.874 629.5,667.5C 629.167,666.667 628.833,665.833 628.5,665C 629.766,661.844 630.766,658.677 631.5,655.5 Z"/></g>
<g><path style="opacity:1" fill="#2fadd7" d="M 404.5,679.5 C 398.279,690.713 391.279,701.379 383.5,711.5C 383.215,709.712 383.548,708.045 384.5,706.5C 386.88,703.133 389.214,699.8 391.5,696.5C 389.167,693.5 386.833,690.5 384.5,687.5C 383.417,688.365 383.251,689.365 384,690.5C 385.577,692.076 386.744,693.909 387.5,696C 386.79,699.663 385.457,702.163 383.5,703.5C 382.448,703.351 381.448,703.517 380.5,704C 381.833,704.667 381.833,705.333 380.5,706C 379.207,706.49 377.873,706.657 376.5,706.5C 376.5,705.5 376.5,704.5 376.5,703.5C 374.5,703.5 372.5,703.5 370.5,703.5C 369.959,707.295 371.625,709.295 375.5,709.5C 374.985,711.225 374.318,712.892 373.5,714.5C 373.089,713.738 372.923,712.738 373,711.5C 372,713.167 371,714.833 370,716.5C 367.923,711.434 367.089,706.101 367.5,700.5C 362.167,700.5 356.833,700.5 351.5,700.5C 351.5,701.5 351.5,702.5 351.5,703.5C 346.167,703.5 340.833,703.5 335.5,703.5C 335.5,702.5 335.5,701.5 335.5,700.5C 329.833,700.5 324.167,700.5 318.5,700.5C 319.008,703.176 319.175,705.843 319,708.5C 318.092,706.561 316.592,705.561 314.5,705.5C 312.965,708.232 311.131,710.898 309,713.5C 307.989,714.337 306.822,714.67 305.5,714.5C 305.5,715.5 305.5,716.5 305.5,717.5C 306.833,717.5 308.167,717.5 309.5,717.5C 310.386,713.963 312.719,712.296 316.5,712.5C 316.768,714.099 316.434,715.432 315.5,716.5C 312.657,717.005 309.99,718.005 307.5,719.5C 305.896,719.061 304.396,718.394 303,717.5C 301.386,718.817 300.219,720.483 299.5,722.5C 295.819,723.271 294.819,725.271 296.5,728.5C 298.89,729.891 300.557,731.891 301.5,734.5C 300.675,735.386 299.675,735.719 298.5,735.5C 297.68,731.9 295.347,729.9 291.5,729.5C 291.357,731.262 291.691,732.929 292.5,734.5C 290.872,734.579 289.205,734.912 287.5,735.5C 289.646,729.881 292.812,724.881 297,720.5C 303.667,713.833 310.333,707.167 317,700.5C 317.798,698.741 317.631,697.074 316.5,695.5C 311.85,692.832 307.517,689.832 303.5,686.5C 299.941,680.941 295.275,676.274 289.5,672.5C 292.864,671.674 295.53,672.84 297.5,676C 298.448,676.483 299.448,676.649 300.5,676.5C 300.5,675.5 300.5,674.5 300.5,673.5C 305.321,671.865 310.321,671.198 315.5,671.5C 315.5,674.167 315.5,676.833 315.5,679.5C 323.5,679.5 331.5,679.5 339.5,679.5C 339.5,676.833 339.5,674.167 339.5,671.5C 342.167,671.5 344.833,671.5 347.5,671.5C 347.5,674.167 347.5,676.833 347.5,679.5C 348.833,679.5 350.167,679.5 351.5,679.5C 351.5,676.833 351.5,674.167 351.5,671.5C 356.833,671.5 362.167,671.5 367.5,671.5C 367.5,674.167 367.5,676.833 367.5,679.5C 368.833,679.5 370.167,679.5 371.5,679.5C 371.5,676.833 371.5,674.167 371.5,671.5C 376.833,671.5 382.167,671.5 387.5,671.5C 387.5,668.833 387.5,666.167 387.5,663.5C 388.833,663.5 390.167,663.5 391.5,663.5C 391.5,664.833 391.5,666.167 391.5,667.5C 394.167,667.5 396.833,667.5 399.5,667.5C 399.884,669.929 400.551,672.263 401.5,674.5C 402.978,674.238 404.311,674.571 405.5,675.5C 404.754,676.736 404.421,678.07 404.5,679.5 Z"/></g>
<g><path style="opacity:1" fill="#2fb2d6" d="M 703.5,660.5 C 709.463,665.128 715.13,670.128 720.5,675.5C 718.889,679.465 716.222,680.298 712.5,678C 711.877,674.383 709.877,672.05 706.5,671C 708.439,670.092 709.439,668.592 709.5,666.5C 706.137,666.513 703.97,668.179 703,671.5C 698.882,665.928 696.382,666.594 695.5,673.5C 692.753,673.813 690.086,673.48 687.5,672.5C 685.995,671.158 685.328,669.492 685.5,667.5C 690.049,667.068 690.549,665.401 687,662.5C 685.812,663.563 685.312,664.897 685.5,666.5C 684.325,666.719 683.325,666.386 682.5,665.5C 682.109,661.775 680.109,659.775 676.5,659.5C 676.435,662.486 677.602,664.82 680,666.5C 680.494,668.134 680.66,669.801 680.5,671.5C 677.117,667.447 674.117,663.114 671.5,658.5C 671.5,657.5 671.5,656.5 671.5,655.5C 673.854,655.162 676.187,654.662 678.5,654C 678.167,653.667 677.833,653.333 677.5,653C 679.167,652.667 680.833,652.333 682.5,652C 683.833,651.333 683.833,650.667 682.5,650C 684.797,649.982 687.131,650.149 689.5,650.5C 690.417,653.418 692.417,655.418 695.5,656.5C 694.289,657.72 694.289,658.887 695.5,660C 694.874,660.75 694.374,661.584 694,662.5C 693.163,660.993 691.996,660.493 690.5,661C 693.752,665.277 693.086,668.611 688.5,671C 689.275,672.23 690.275,672.563 691.5,672C 692.79,669.708 694.457,667.708 696.5,666C 697.785,664.688 697.785,662.855 696.5,660.5C 698.833,660.5 701.167,660.5 703.5,660.5 Z"/></g>
<g><path style="opacity:1" fill="#329de5" d="M 549.5,690.5 C 548.464,688.278 546.797,687.112 544.5,687C 538.934,695.32 533.268,703.487 527.5,711.5C 527.331,709.088 527.997,706.921 529.5,705C 529.167,704.5 528.833,704 528.5,703.5C 521.185,709.944 518.185,708.277 519.5,698.5C 511.5,698.5 503.5,698.5 495.5,698.5C 495.5,700.167 495.5,701.833 495.5,703.5C 485.833,703.5 476.167,703.5 466.5,703.5C 466.5,701.833 466.5,700.167 466.5,698.5C 465.5,698.5 464.5,698.5 463.5,698.5C 463.5,700.833 463.5,703.167 463.5,705.5C 457.54,705.259 451.873,703.926 446.5,701.5C 445.158,703.005 443.492,703.672 441.5,703.5C 443.361,701.255 444.361,698.588 444.5,695.5C 443.167,695.5 441.833,695.5 440.5,695.5C 440.788,699.204 439.288,701.871 436,703.5C 435.228,703.355 434.561,703.022 434,702.5C 433.377,698.068 432.377,697.735 431,701.5C 430.184,702.823 429.017,703.489 427.5,703.5C 432.759,693.976 438.759,684.976 445.5,676.5C 447.262,676.643 448.929,676.309 450.5,675.5C 451.594,677.836 452.927,677.836 454.5,675.5C 452.31,673.993 450.976,671.993 450.5,669.5C 455.034,670.956 458.534,669.623 461,665.5C 462.559,667.217 463.392,669.217 463.5,671.5C 474.167,671.5 484.833,671.5 495.5,671.5C 495.5,673.167 495.5,674.833 495.5,676.5C 500.833,676.5 506.167,676.5 511.5,676.5C 511.5,673.833 511.5,671.167 511.5,668.5C 522.167,668.5 532.833,668.5 543.5,668.5C 543.5,669.5 543.5,670.5 543.5,671.5C 547.5,671.5 551.5,671.5 555.5,671.5C 555.22,674.388 556.553,675.888 559.5,676C 554.149,676.33 548.982,675.497 544,673.5C 543.51,674.793 543.343,676.127 543.5,677.5C 546.651,676.684 549.817,677.018 553,678.5C 553.422,680.355 553.922,682.189 554.5,684C 553.453,685.578 553.453,687.078 554.5,688.5C 555.609,687.41 556.609,687.41 557.5,688.5C 556.164,690.24 554.83,691.907 553.5,693.5C 552.614,692.675 552.281,691.675 552.5,690.5C 551.5,690.5 550.5,690.5 549.5,690.5 Z"/></g>
<g><path style="opacity:1" fill="#31add7" d="M 720.5,675.5 C 731.158,684.492 741.491,693.825 751.5,703.5C 750.448,703.649 749.448,703.483 748.5,703C 747.902,700.952 746.569,699.785 744.5,699.5C 742.952,701.376 740.952,702.376 738.5,702.5C 738.778,700.654 738.111,699.32 736.5,698.5C 735.548,700.045 735.215,701.712 735.5,703.5C 732.95,703.439 731.45,702.106 731,699.5C 727.942,695.938 724.442,692.938 720.5,690.5C 717.7,691.732 714.7,692.399 711.5,692.5C 708.3,692.399 705.3,691.732 702.5,690.5C 701.47,692.517 700.47,694.517 699.5,696.5C 700.9,698.925 702.066,698.592 703,695.5C 702.842,698.179 702.342,700.846 701.5,703.5C 694.006,693.184 687.006,682.517 680.5,671.5C 680.66,669.801 680.494,668.134 680,666.5C 677.602,664.82 676.435,662.486 676.5,659.5C 680.109,659.775 682.109,661.775 682.5,665.5C 683.325,666.386 684.325,666.719 685.5,666.5C 685.312,664.897 685.812,663.563 687,662.5C 690.549,665.401 690.049,667.068 685.5,667.5C 685.328,669.492 685.995,671.158 687.5,672.5C 690.086,673.48 692.753,673.813 695.5,673.5C 696.382,666.594 698.882,665.928 703,671.5C 703.97,668.179 706.137,666.513 709.5,666.5C 709.439,668.592 708.439,670.092 706.5,671C 709.877,672.05 711.877,674.383 712.5,678C 716.222,680.298 718.889,679.465 720.5,675.5 Z"/></g>
<g><path style="opacity:1" fill="#40b1d1" d="M 267.5,673.5 C 274.811,682.977 283.311,691.31 293,698.5C 293.585,699.998 293.085,700.998 291.5,701.5C 290.194,700.533 289.527,699.199 289.5,697.5C 288.127,697.657 286.793,697.49 285.5,697C 282.044,693.328 278.044,690.828 273.5,689.5C 272.657,685.478 270.99,681.812 268.5,678.5C 266.386,677.966 264.552,676.966 263,675.5C 262.333,677.833 262.333,680.167 263,682.5C 264,681.167 265,681.167 266,682.5C 266.909,685.513 267.742,688.513 268.5,691.5C 267.5,691.5 266.5,691.5 265.5,691.5C 265.657,690.127 265.49,688.793 265,687.5C 263.567,693.28 261.4,698.613 258.5,703.5C 257.5,703.5 256.5,703.5 255.5,703.5C 260.856,693.633 263.023,682.966 262,671.5C 262.333,670.833 262.667,670.167 263,669.5C 264.371,671.041 265.871,672.375 267.5,673.5 Z"/></g>
<g><path style="opacity:1" fill="#329de6" d="M 655.5,692.5 C 658.596,695.696 660.93,699.362 662.5,703.5C 660.952,703.179 660.285,702.179 660.5,700.5C 657.654,700.03 655.321,700.863 653.5,703C 648.845,703.499 644.179,703.666 639.5,703.5C 639.5,705.833 639.5,708.167 639.5,710.5C 634.167,710.5 628.833,710.5 623.5,710.5C 623.5,709.167 623.5,707.833 623.5,706.5C 618.167,706.5 612.833,706.5 607.5,706.5C 607.5,705.5 607.5,704.5 607.5,703.5C 596.833,703.5 586.167,703.5 575.5,703.5C 575.162,705.854 574.662,708.187 574,710.5C 572.267,712.723 570.767,715.056 569.5,717.5C 569.544,720.41 570.71,721.41 573,720.5C 573.464,721.094 573.631,721.761 573.5,722.5C 573.704,724.685 574.37,726.685 575.5,728.5C 574.206,727.71 573.039,726.71 572,725.5C 566.268,716.301 560.435,707.301 554.5,698.5C 556.096,695.207 557.762,691.874 559.5,688.5C 563.107,687.511 566.774,687.177 570.5,687.5C 570.5,685.167 570.5,682.833 570.5,680.5C 572.167,680.5 573.833,680.5 575.5,680.5C 575.5,677.5 575.5,674.5 575.5,671.5C 578.167,671.5 580.833,671.5 583.5,671.5C 583.5,672.833 583.5,674.167 583.5,675.5C 591.483,676.166 599.483,676.499 607.5,676.5C 607.5,677.833 607.5,679.167 607.5,680.5C 618.167,680.5 628.833,680.5 639.5,680.5C 639.244,678.088 640.244,676.421 642.5,675.5C 642.242,677.758 642.242,680.091 642.5,682.5C 646.877,685.858 651.21,689.191 655.5,692.5 Z"/></g>
<g><path style="opacity:1" fill="#30aadb" d="M 751.5,703.5 C 757.167,708.5 762.5,713.833 767.5,719.5C 764.886,719.723 763.219,718.556 762.5,716C 760.866,715.506 759.199,715.34 757.5,715.5C 755.966,720.678 754.299,720.678 752.5,715.5C 751.571,716.689 751.238,718.022 751.5,719.5C 749.833,719.5 748.167,719.5 746.5,719.5C 746.813,716.753 746.48,714.086 745.5,711.5C 743.783,712.668 743.116,714.335 743.5,716.5C 735.711,714.223 727.711,712.556 719.5,711.5C 718.833,719.5 718.167,719.5 717.5,711.5C 716.5,711.5 715.5,711.5 714.5,711.5C 714.5,709.5 714.5,707.5 714.5,705.5C 713.167,705.5 711.833,705.5 710.5,705.5C 710.416,708.327 709.75,710.994 708.5,713.5C 705.687,710.554 703.354,707.221 701.5,703.5C 702.342,700.846 702.842,698.179 703,695.5C 702.066,698.592 700.9,698.925 699.5,696.5C 700.47,694.517 701.47,692.517 702.5,690.5C 705.3,691.732 708.3,692.399 711.5,692.5C 714.7,692.399 717.7,691.732 720.5,690.5C 724.442,692.938 727.942,695.938 731,699.5C 731.45,702.106 732.95,703.439 735.5,703.5C 735.215,701.712 735.548,700.045 736.5,698.5C 738.111,699.32 738.778,700.654 738.5,702.5C 740.952,702.376 742.952,701.376 744.5,699.5C 746.569,699.785 747.902,700.952 748.5,703C 749.448,703.483 750.448,703.649 751.5,703.5 Z"/></g>
<g><path style="opacity:1" fill="#2ea9dc" d="M 383.5,711.5 C 379.993,717.852 375.993,723.852 371.5,729.5C 370.882,726.602 369.715,723.935 368,721.5C 365.544,723.321 362.711,723.988 359.5,723.5C 359.5,722.167 359.5,720.833 359.5,719.5C 349.859,718.359 349.526,718.359 358.5,719.5C 358.5,721.5 358.5,723.5 358.5,725.5C 355.921,725.083 353.754,725.75 352,727.5C 341.423,725.537 330.59,724.87 319.5,725.5C 319.799,723.396 319.466,721.396 318.5,719.5C 317.145,718.812 316.145,717.812 315.5,716.5C 316.434,715.432 316.768,714.099 316.5,712.5C 312.719,712.296 310.386,713.963 309.5,717.5C 308.167,717.5 306.833,717.5 305.5,717.5C 305.5,716.5 305.5,715.5 305.5,714.5C 306.822,714.67 307.989,714.337 309,713.5C 311.131,710.898 312.965,708.232 314.5,705.5C 316.592,705.561 318.092,706.561 319,708.5C 319.175,705.843 319.008,703.176 318.5,700.5C 324.167,700.5 329.833,700.5 335.5,700.5C 335.5,701.5 335.5,702.5 335.5,703.5C 340.833,703.5 346.167,703.5 351.5,703.5C 351.5,702.5 351.5,701.5 351.5,700.5C 356.833,700.5 362.167,700.5 367.5,700.5C 367.089,706.101 367.923,711.434 370,716.5C 371,714.833 372,713.167 373,711.5C 372.923,712.738 373.089,713.738 373.5,714.5C 374.318,712.892 374.985,711.225 375.5,709.5C 371.625,709.295 369.959,707.295 370.5,703.5C 372.5,703.5 374.5,703.5 376.5,703.5C 376.5,704.5 376.5,705.5 376.5,706.5C 377.873,706.657 379.207,706.49 380.5,706C 381.833,705.333 381.833,704.667 380.5,704C 381.448,703.517 382.448,703.351 383.5,703.5C 385.457,702.163 386.79,699.663 387.5,696C 386.744,693.909 385.577,692.076 384,690.5C 383.251,689.365 383.417,688.365 384.5,687.5C 386.833,690.5 389.167,693.5 391.5,696.5C 389.214,699.8 386.88,703.133 384.5,706.5C 383.548,708.045 383.215,709.712 383.5,711.5 Z"/></g>
<g><path style="opacity:1" fill="#3399e7" d="M 527.5,711.5 C 523.401,718.044 519.068,724.377 514.5,730.5C 514.502,728.169 513.669,726.169 512,724.5C 498.563,725.158 485.063,725.825 471.5,726.5C 472.689,727.429 474.022,727.762 475.5,727.5C 475.5,728.833 475.5,730.167 475.5,731.5C 471.5,731.5 467.5,731.5 463.5,731.5C 463.5,730.167 463.5,728.833 463.5,727.5C 447.5,727.5 431.5,727.5 415.5,727.5C 415.657,726.127 415.49,724.793 415,723.5C 414.623,724.942 413.79,725.942 412.5,726.5C 416.769,718.28 421.769,710.613 427.5,703.5C 429.017,703.489 430.184,702.823 431,701.5C 432.377,697.735 433.377,698.068 434,702.5C 434.561,703.022 435.228,703.355 436,703.5C 439.288,701.871 440.788,699.204 440.5,695.5C 441.833,695.5 443.167,695.5 444.5,695.5C 444.361,698.588 443.361,701.255 441.5,703.5C 443.492,703.672 445.158,703.005 446.5,701.5C 451.873,703.926 457.54,705.259 463.5,705.5C 463.5,703.167 463.5,700.833 463.5,698.5C 464.5,698.5 465.5,698.5 466.5,698.5C 466.5,700.167 466.5,701.833 466.5,703.5C 476.167,703.5 485.833,703.5 495.5,703.5C 495.5,701.833 495.5,700.167 495.5,698.5C 503.5,698.5 511.5,698.5 519.5,698.5C 518.185,708.277 521.185,709.944 528.5,703.5C 528.833,704 529.167,704.5 529.5,705C 527.997,706.921 527.331,709.088 527.5,711.5 Z"/></g>
<g><path style="opacity:1" fill="#3399e7" d="M 662.5,703.5 C 672.907,717.307 682.573,731.64 691.5,746.5C 691.703,748.044 692.37,749.378 693.5,750.5C 693,750.833 692.5,751.167 692,751.5C 691,750.833 690,750.167 689,749.5C 687.97,749.836 687.47,750.503 687.5,751.5C 660.486,751.74 633.32,752.407 606,753.5C 605.5,753.167 605,752.833 604.5,752.5C 620.486,751.501 636.486,751.167 652.5,751.5C 652.5,748.833 652.5,746.167 652.5,743.5C 650.833,743.5 649.167,743.5 647.5,743.5C 647.5,742.5 647.5,741.5 647.5,740.5C 636.833,740.167 636.833,739.833 647.5,739.5C 647.5,738.5 647.5,737.5 647.5,736.5C 634.185,735.667 620.851,735.334 607.5,735.5C 607.5,734.5 607.5,733.5 607.5,732.5C 602.167,731.833 596.833,731.167 591.5,730.5C 591.5,729.5 591.5,728.5 591.5,727.5C 596.833,727.5 602.167,727.5 607.5,727.5C 607.5,726.167 607.5,724.833 607.5,723.5C 601.491,723.666 595.491,723.499 589.5,723C 587.603,720.033 584.936,719.033 581.5,720C 583,721.5 584.5,723 586,724.5C 586.774,726.403 586.44,728.07 585,729.5C 582.85,726.037 579.684,724.704 575.5,725.5C 575.715,723.821 575.048,722.821 573.5,722.5C 573.631,721.761 573.464,721.094 573,720.5C 570.71,721.41 569.544,720.41 569.5,717.5C 570.767,715.056 572.267,712.723 574,710.5C 574.662,708.187 575.162,705.854 575.5,703.5C 586.167,703.5 596.833,703.5 607.5,703.5C 607.5,704.5 607.5,705.5 607.5,706.5C 612.833,706.5 618.167,706.5 623.5,706.5C 623.5,707.833 623.5,709.167 623.5,710.5C 628.833,710.5 634.167,710.5 639.5,710.5C 639.5,708.167 639.5,705.833 639.5,703.5C 644.179,703.666 648.845,703.499 653.5,703C 655.321,700.863 657.654,700.03 660.5,700.5C 660.285,702.179 660.952,703.179 662.5,703.5 Z"/></g>
<g><path style="opacity:1" fill="#37a6d9" d="M 254.5,705.5 C 255.158,706.398 255.824,707.398 256.5,708.5C 258.51,706.829 260.843,706.162 263.5,706.5C 263.52,708.143 262.853,709.476 261.5,710.5C 264.788,711.445 268.121,712.112 271.5,712.5C 271.441,715.049 272.441,717.049 274.5,718.5C 272.828,721.337 270.661,723.67 268,725.5C 267.503,727.81 267.337,730.143 267.5,732.5C 265.203,739.62 264.203,746.954 264.5,754.5C 258.833,754.5 253.167,754.5 247.5,754.5C 247.5,753.5 247.5,752.5 247.5,751.5C 252.284,753.647 257.284,753.981 262.5,752.5C 263.474,744.369 264.807,736.369 266.5,728.5C 265.958,725.312 264.958,722.312 263.5,719.5C 262.5,719.5 261.5,719.5 260.5,719.5C 260.5,720.833 260.5,722.167 260.5,723.5C 261.552,723.351 262.552,723.517 263.5,724C 261.9,731.722 260.733,739.555 260,747.5C 258.344,739.513 256.678,731.513 255,723.5C 254.499,732.845 253.833,742.179 253,751.5C 252.279,744.182 251.779,736.848 251.5,729.5C 251.338,724.372 252.005,719.372 253.5,714.5C 253.333,713.833 253.167,713.167 253,712.5C 252.333,713.833 251.333,714.833 250,715.5C 249.831,722.191 249.331,728.858 248.5,735.5C 247.914,735.291 247.414,734.957 247,734.5C 246.501,739.489 246.334,744.489 246.5,749.5C 243.463,737.749 244.13,726.082 248.5,714.5C 250.24,711.362 252.24,708.362 254.5,705.5 Z"/></g>
<g><path style="opacity:1" fill="#33aad9" d="M 291.5,701.5 C 287.578,706.928 283.078,711.928 278,716.5C 273.851,721.468 270.351,726.802 267.5,732.5C 267.337,730.143 267.503,727.81 268,725.5C 270.661,723.67 272.828,721.337 274.5,718.5C 272.441,717.049 271.441,715.049 271.5,712.5C 268.121,712.112 264.788,711.445 261.5,710.5C 262.853,709.476 263.52,708.143 263.5,706.5C 260.843,706.162 258.51,706.829 256.5,708.5C 255.824,707.398 255.158,706.398 254.5,705.5C 254.328,704.508 254.662,703.842 255.5,703.5C 256.5,703.5 257.5,703.5 258.5,703.5C 261.4,698.613 263.567,693.28 265,687.5C 265.49,688.793 265.657,690.127 265.5,691.5C 266.5,691.5 267.5,691.5 268.5,691.5C 267.742,688.513 266.909,685.513 266,682.5C 265,681.167 264,681.167 263,682.5C 262.333,680.167 262.333,677.833 263,675.5C 264.552,676.966 266.386,677.966 268.5,678.5C 270.99,681.812 272.657,685.478 273.5,689.5C 278.044,690.828 282.044,693.328 285.5,697C 286.793,697.49 288.127,697.657 289.5,697.5C 289.527,699.199 290.194,700.533 291.5,701.5 Z"/></g>
<g><path style="opacity:1" fill="#f6fcfb" d="M 274.5,660.5 C 278.527,663.86 282.194,667.527 285.5,671.5C 291.131,676.977 297.131,681.977 303.5,686.5C 307.517,689.832 311.85,692.832 316.5,695.5C 317.631,697.074 317.798,698.741 317,700.5C 310.333,707.167 303.667,713.833 297,720.5C 292.812,724.881 289.646,729.881 287.5,735.5C 284.413,742.517 283.247,749.851 284,757.5C 284.66,759.324 285.827,760.657 287.5,761.5C 306.833,762.833 326.167,762.833 345.5,761.5C 347.827,761.753 349.827,761.086 351.5,759.5C 354.556,755.458 357.556,751.458 360.5,747.5C 360.33,748.822 360.663,749.989 361.5,751C 358.444,753.231 355.944,756.064 354,759.5C 351.655,761.895 348.822,763.395 345.5,764C 326.17,764.5 306.836,764.667 287.5,764.5C 287.649,765.552 287.483,766.552 287,767.5C 287.145,764.077 285.645,762.077 282.5,761.5C 282.665,758.15 282.498,754.817 282,751.5C 280.039,757.932 278.873,757.932 278.5,751.5C 277.5,751.5 276.5,751.5 275.5,751.5C 275.5,754.167 275.5,756.833 275.5,759.5C 274.5,759.5 273.5,759.5 272.5,759.5C 273.154,764.152 271.82,764.819 268.5,761.5C 271.497,758.838 272.831,755.505 272.5,751.5C 271.167,751.5 269.833,751.5 268.5,751.5C 268.762,750.022 268.429,748.689 267.5,747.5C 267.102,750.024 266.768,752.524 266.5,755C 260.251,756.536 253.917,756.87 247.5,756C 244.112,749.669 242.778,742.836 243.5,735.5C 242.5,735.5 241.5,735.5 240.5,735.5C 240.768,729.618 240.434,723.785 239.5,718C 240.207,715.46 241.873,714.293 244.5,714.5C 244.344,708.687 245.011,708.354 246.5,713.5C 246.957,714.298 247.624,714.631 248.5,714.5C 244.13,726.082 243.463,737.749 246.5,749.5C 246.328,750.492 246.662,751.158 247.5,751.5C 247.5,752.5 247.5,753.5 247.5,754.5C 253.167,754.5 258.833,754.5 264.5,754.5C 264.203,746.954 265.203,739.62 267.5,732.5C 270.351,726.802 273.851,721.468 278,716.5C 283.078,711.928 287.578,706.928 291.5,701.5C 293.085,700.998 293.585,699.998 293,698.5C 283.311,691.31 274.811,682.977 267.5,673.5C 269.876,672.274 271.376,670.274 272,667.5C 272.465,668.931 273.299,670.097 274.5,671C 273.663,672.011 273.33,673.178 273.5,674.5C 274.833,674.5 276.167,674.5 277.5,674.5C 277.421,675.93 277.754,677.264 278.5,678.5C 281.401,681.312 284.068,684.312 286.5,687.5C 287.982,684.021 287.316,681.021 284.5,678.5C 283.549,679.326 282.549,679.492 281.5,679C 282.26,677.559 282.926,676.059 283.5,674.5C 281.797,674.851 280.13,674.184 278.5,672.5C 279.5,671.667 280.5,670.833 281.5,670C 276.412,668.467 274.078,665.3 274.5,660.5 Z"/></g>
<g><path style="opacity:1" fill="#31a5dd" d="M 767.5,719.5 C 772.833,724.167 777.833,729.167 782.5,734.5C 778.051,735.889 774.218,734.889 771,731.5C 770.667,731.833 770.333,732.167 770,732.5C 768.839,727.869 766.673,727.703 763.5,732C 764.793,732.49 766.127,732.657 767.5,732.5C 767.5,733.5 767.5,734.5 767.5,735.5C 756.833,735.5 746.167,735.5 735.5,735.5C 734.466,738.716 732.8,741.55 730.5,744C 732.628,745.987 733.628,748.487 733.5,751.5C 725.17,738.842 716.836,726.175 708.5,713.5C 709.75,710.994 710.416,708.327 710.5,705.5C 711.833,705.5 713.167,705.5 714.5,705.5C 714.5,707.5 714.5,709.5 714.5,711.5C 715.5,711.5 716.5,711.5 717.5,711.5C 718.167,719.5 718.833,719.5 719.5,711.5C 727.711,712.556 735.711,714.223 743.5,716.5C 743.116,714.335 743.783,712.668 745.5,711.5C 746.48,714.086 746.813,716.753 746.5,719.5C 748.167,719.5 749.833,719.5 751.5,719.5C 751.238,718.022 751.571,716.689 752.5,715.5C 754.299,720.678 755.966,720.678 757.5,715.5C 759.199,715.34 760.866,715.506 762.5,716C 763.219,718.556 764.886,719.723 767.5,719.5 Z"/></g>
<g><path style="opacity:1" fill="#31a5dd" d="M 315.5,716.5 C 316.145,717.812 317.145,718.812 318.5,719.5C 319.466,721.396 319.799,723.396 319.5,725.5C 330.59,724.87 341.423,725.537 352,727.5C 353.754,725.75 355.921,725.083 358.5,725.5C 358.5,723.5 358.5,721.5 358.5,719.5C 349.526,718.359 349.859,718.359 359.5,719.5C 359.5,720.833 359.5,722.167 359.5,723.5C 362.711,723.988 365.544,723.321 368,721.5C 369.715,723.935 370.882,726.602 371.5,729.5C 367.844,735.472 364.178,741.472 360.5,747.5C 357.556,751.458 354.556,755.458 351.5,759.5C 349.827,761.086 347.827,761.753 345.5,761.5C 347.216,760.029 349.216,759.029 351.5,758.5C 351.807,755.365 353.14,752.698 355.5,750.5C 355,750.167 354.5,749.833 354,749.5C 352.349,750.742 350.515,751.576 348.5,752C 347.167,752.667 347.167,753.333 348.5,754C 346.833,755 345.167,756 343.5,757C 324.833,757.667 306.167,757.667 287.5,757C 305.484,755.948 323.484,755.281 341.5,755C 341.833,754.667 342.167,754.333 342.5,754C 340.285,752.956 337.952,752.29 335.5,752C 321.996,752.521 308.496,752.354 295,751.5C 291.914,751.522 288.914,751.855 286,752.5C 285.414,755.729 285.914,758.729 287.5,761.5C 285.827,760.657 284.66,759.324 284,757.5C 283.247,749.851 284.413,742.517 287.5,735.5C 289.205,734.912 290.872,734.579 292.5,734.5C 291.691,732.929 291.357,731.262 291.5,729.5C 295.347,729.9 297.68,731.9 298.5,735.5C 299.675,735.719 300.675,735.386 301.5,734.5C 300.557,731.891 298.89,729.891 296.5,728.5C 294.819,725.271 295.819,723.271 299.5,722.5C 300.219,720.483 301.386,718.817 303,717.5C 304.396,718.394 305.896,719.061 307.5,719.5C 309.99,718.005 312.657,717.005 315.5,716.5 Z"/></g>
<g><path style="opacity:1" fill="#3396e8" d="M 514.5,730.5 C 512.554,734.439 510.221,738.106 507.5,741.5C 507.5,739.5 507.5,737.5 507.5,735.5C 505.712,735.215 504.045,735.548 502.5,736.5C 503.59,737.609 503.59,738.609 502.5,739.5C 500.628,735.244 498.295,734.744 495.5,738C 490.177,738.499 484.844,738.666 479.5,738.5C 479.5,741.167 479.5,743.833 479.5,746.5C 466.096,746.829 452.762,746.162 439.5,744.5C 439.5,742.5 439.5,740.5 439.5,738.5C 436.212,738.073 433.212,738.74 430.5,740.5C 425.735,735.865 420.068,734.532 413.5,736.5C 411.571,738.06 410.238,740.06 409.5,742.5C 408.311,743.429 406.978,743.762 405.5,743.5C 405.719,742.325 405.386,741.325 404.5,740.5C 404.167,741.167 403.833,741.833 403.5,742.5C 404.754,744.334 405.421,746.334 405.5,748.5C 403.012,748.317 401.012,747.317 399.5,745.5C 403.095,738.638 407.428,732.304 412.5,726.5C 413.79,725.942 414.623,724.942 415,723.5C 415.49,724.793 415.657,726.127 415.5,727.5C 431.5,727.5 447.5,727.5 463.5,727.5C 463.5,728.833 463.5,730.167 463.5,731.5C 467.5,731.5 471.5,731.5 475.5,731.5C 475.5,730.167 475.5,728.833 475.5,727.5C 474.022,727.762 472.689,727.429 471.5,726.5C 485.063,725.825 498.563,725.158 512,724.5C 513.669,726.169 514.502,728.169 514.5,730.5 Z"/></g>
<g><path style="opacity:1" fill="#3394e9" d="M 507.5,741.5 C 504.011,747.139 500.511,752.805 497,758.5C 495.736,760.607 493.903,761.607 491.5,761.5C 460.498,761.667 429.498,761.5 398.5,761C 397.255,760.209 395.922,759.709 394.5,759.5C 393.463,757.262 393.297,754.929 394,752.5C 395.853,750.097 397.686,747.764 399.5,745.5C 401.012,747.317 403.012,748.317 405.5,748.5C 405.421,746.334 404.754,744.334 403.5,742.5C 403.833,741.833 404.167,741.167 404.5,740.5C 405.386,741.325 405.719,742.325 405.5,743.5C 406.978,743.762 408.311,743.429 409.5,742.5C 410.238,740.06 411.571,738.06 413.5,736.5C 420.068,734.532 425.735,735.865 430.5,740.5C 433.212,738.74 436.212,738.073 439.5,738.5C 439.5,740.5 439.5,742.5 439.5,744.5C 452.762,746.162 466.096,746.829 479.5,746.5C 479.5,743.833 479.5,741.167 479.5,738.5C 484.844,738.666 490.177,738.499 495.5,738C 498.295,734.744 500.628,735.244 502.5,739.5C 503.59,738.609 503.59,737.609 502.5,736.5C 504.045,735.548 505.712,735.215 507.5,735.5C 507.5,737.5 507.5,739.5 507.5,741.5 Z"/></g>
<g><path style="opacity:1" fill="#31a1e0" d="M 782.5,734.5 C 789.5,740.833 796.167,747.5 802.5,754.5C 801.244,754.539 800.244,754.039 799.5,753C 791.5,752.5 783.5,752 775.5,751.5C 765.994,752.688 756.494,752.688 747,751.5C 745.5,751.833 744,752.167 742.5,752.5C 744.396,753.466 746.396,753.799 748.5,753.5C 748.5,754.833 748.5,756.167 748.5,757.5C 746.266,757.62 744.099,757.287 742,756.5C 740.233,758.164 740.733,759.331 743.5,760C 763.671,760.168 783.671,760.668 803.5,761.5C 783.5,761.5 763.5,761.5 743.5,761.5C 739.593,760.593 736.926,758.26 735.5,754.5C 735.715,752.821 735.048,751.821 733.5,751.5C 733.628,748.487 732.628,745.987 730.5,744C 732.8,741.55 734.466,738.716 735.5,735.5C 746.167,735.5 756.833,735.5 767.5,735.5C 767.5,734.5 767.5,733.5 767.5,732.5C 766.127,732.657 764.793,732.49 763.5,732C 766.673,727.703 768.839,727.869 770,732.5C 770.333,732.167 770.667,731.833 771,731.5C 774.218,734.889 778.051,735.889 782.5,734.5 Z"/></g>
<g><path style="opacity:1" fill="#3295e8" d="M 687.5,751.5 C 689.636,752.719 691.969,753.552 694.5,754C 695.885,756.585 695.218,758.585 692.5,760C 691.167,760.333 689.833,760.667 688.5,761C 658.168,761.5 627.835,761.667 597.5,761.5C 596.206,760.71 595.039,759.71 594,758.5C 589.163,750.156 583.83,742.156 578,734.5C 576.441,732.783 575.608,730.783 575.5,728.5C 574.37,726.685 573.704,724.685 573.5,722.5C 575.048,722.821 575.715,723.821 575.5,725.5C 579.684,724.704 582.85,726.037 585,729.5C 586.44,728.07 586.774,726.403 586,724.5C 584.5,723 583,721.5 581.5,720C 584.936,719.033 587.603,720.033 589.5,723C 595.491,723.499 601.491,723.666 607.5,723.5C 607.5,724.833 607.5,726.167 607.5,727.5C 602.167,727.5 596.833,727.5 591.5,727.5C 591.5,728.5 591.5,729.5 591.5,730.5C 596.833,731.167 602.167,731.833 607.5,732.5C 607.5,733.5 607.5,734.5 607.5,735.5C 620.851,735.334 634.185,735.667 647.5,736.5C 647.5,737.5 647.5,738.5 647.5,739.5C 636.833,739.833 636.833,740.167 647.5,740.5C 647.5,741.5 647.5,742.5 647.5,743.5C 649.167,743.5 650.833,743.5 652.5,743.5C 652.5,746.167 652.5,748.833 652.5,751.5C 636.486,751.167 620.486,751.501 604.5,752.5C 605,752.833 605.5,753.167 606,753.5C 633.32,752.407 660.486,751.74 687.5,751.5 Z"/></g>
<g><path style="opacity:1" fill="#30a3e2" d="M 247.5,751.5 C 246.662,751.158 246.328,750.492 246.5,749.5C 246.334,744.489 246.501,739.489 247,734.5C 247.414,734.957 247.914,735.291 248.5,735.5C 249.331,728.858 249.831,722.191 250,715.5C 251.333,714.833 252.333,713.833 253,712.5C 253.167,713.167 253.333,713.833 253.5,714.5C 252.005,719.372 251.338,724.372 251.5,729.5C 251.779,736.848 252.279,744.182 253,751.5C 253.833,742.179 254.499,732.845 255,723.5C 256.678,731.513 258.344,739.513 260,747.5C 260.733,739.555 261.9,731.722 263.5,724C 262.552,723.517 261.552,723.351 260.5,723.5C 260.5,722.167 260.5,720.833 260.5,719.5C 261.5,719.5 262.5,719.5 263.5,719.5C 264.958,722.312 265.958,725.312 266.5,728.5C 264.807,736.369 263.474,744.369 262.5,752.5C 257.284,753.981 252.284,753.647 247.5,751.5 Z"/></g>
<g><path style="opacity:1" fill="#6c9faf" d="M 733.5,751.5 C 735.048,751.821 735.715,752.821 735.5,754.5C 734.599,753.71 733.932,752.71 733.5,751.5 Z"/></g>
<g><path style="opacity:1" fill="#33a0df" d="M 345.5,761.5 C 326.167,762.833 306.833,762.833 287.5,761.5C 285.914,758.729 285.414,755.729 286,752.5C 288.914,751.855 291.914,751.522 295,751.5C 308.496,752.354 321.996,752.521 335.5,752C 337.952,752.29 340.285,752.956 342.5,754C 342.167,754.333 341.833,754.667 341.5,755C 323.484,755.281 305.484,755.948 287.5,757C 306.167,757.667 324.833,757.667 343.5,757C 345.167,756 346.833,755 348.5,754C 347.167,753.333 347.167,752.667 348.5,752C 350.515,751.576 352.349,750.742 354,749.5C 354.5,749.833 355,750.167 355.5,750.5C 353.14,752.698 351.807,755.365 351.5,758.5C 349.216,759.029 347.216,760.029 345.5,761.5 Z"/></g>
<g><path style="opacity:1" fill="#309fe7" d="M 802.5,754.5 C 803.5,754.833 804.167,755.5 804.5,756.5C 804.703,758.044 805.37,759.378 806.5,760.5C 805.675,761.386 804.675,761.719 803.5,761.5C 783.671,760.668 763.671,760.168 743.5,760C 740.733,759.331 740.233,758.164 742,756.5C 744.099,757.287 746.266,757.62 748.5,757.5C 748.5,756.167 748.5,754.833 748.5,753.5C 746.396,753.799 744.396,753.466 742.5,752.5C 744,752.167 745.5,751.833 747,751.5C 756.494,752.688 765.994,752.688 775.5,751.5C 783.5,752 791.5,752.5 799.5,753C 800.244,754.039 801.244,754.539 802.5,754.5 Z"/></g>
<g><path style="opacity:1" fill="#31a1e0" d="M 751.5,755.5 C 767.514,755.167 783.514,755.501 799.5,756.5C 799.833,757.167 800.167,757.833 800.5,758.5C 784.443,758.525 768.11,758.525 751.5,758.5C 751.5,757.5 751.5,756.5 751.5,755.5 Z"/></g>
<g><path style="opacity:1" fill="#3292f0" d="M 607.5,758.5 C 623.514,758.167 639.514,758.501 655.5,759.5C 647.5,759.833 639.5,760.167 631.5,760.5C 623.138,760.498 615.138,759.831 607.5,758.5 Z"/></g>
<g><path style="opacity:1" fill="#458ccb" d="M 394.5,759.5 C 395.922,759.709 397.255,760.209 398.5,761C 429.498,761.5 460.498,761.667 491.5,761.5C 460.003,762.664 428.336,762.831 396.5,762C 395.619,761.292 394.953,760.458 394.5,759.5 Z"/></g>
<g><path style="opacity:1" fill="#4591cc" d="M 691.5,746.5 C 696.119,749.634 697.619,753.968 696,759.5C 695.097,760.701 693.931,761.535 692.5,762C 660.664,762.831 628.997,762.664 597.5,761.5C 627.835,761.667 658.168,761.5 688.5,761C 689.833,760.667 691.167,760.333 692.5,760C 695.218,758.585 695.885,756.585 694.5,754C 691.969,753.552 689.636,752.719 687.5,751.5C 687.47,750.503 687.97,749.836 689,749.5C 690,750.167 691,750.833 692,751.5C 692.5,751.167 693,750.833 693.5,750.5C 692.37,749.378 691.703,748.044 691.5,746.5 Z"/></g>
<g><path style="opacity:1" fill="#4998c7" d="M 804.5,756.5 C 806.479,757.812 808.145,759.479 809.5,761.5C 787.337,762.828 765.337,762.828 743.5,761.5C 763.5,761.5 783.5,761.5 803.5,761.5C 804.675,761.719 805.675,761.386 806.5,760.5C 805.37,759.378 804.703,758.044 804.5,756.5 Z"/></g>
</svg>
